<mxfile host="Electron" modified="2024-05-13T10:30:39.594Z" agent="Mozilla/5.0 (Windows NT 10.0; Win64; x64) AppleWebKit/537.36 (KHTML, like Gecko) draw.io/21.7.5 Chrome/114.0.5735.289 Electron/25.8.1 Safari/537.36" etag="LzvlgGypSmDBXgoXYDFd" version="21.7.5" type="device">
  <diagram name="第 1 页" id="vXVKDgxpy2dm2e9gv53O">
    <mxGraphModel dx="5159" dy="958" grid="1" gridSize="10" guides="1" tooltips="1" connect="1" arrows="1" fold="1" page="1" pageScale="1" pageWidth="1169" pageHeight="827" math="0" shadow="0">
      <root>
        <mxCell id="0" />
        <mxCell id="1" value="Main" parent="0" />
        <mxCell id="8Rd9n1IpjqdqJiG8g8nQ-80" style="edgeStyle=orthogonalEdgeStyle;rounded=0;sketch=1;hachureGap=4;jiggle=2;curveFitting=1;orthogonalLoop=1;jettySize=auto;html=1;entryX=0.5;entryY=0;entryDx=0;entryDy=0;fontFamily=Architects Daughter;fontSource=https%3A%2F%2Ffonts.googleapis.com%2Fcss%3Ffamily%3DArchitects%2BDaughter;fontSize=16;" parent="1" source="8Rd9n1IpjqdqJiG8g8nQ-2" target="8Rd9n1IpjqdqJiG8g8nQ-77" edge="1">
          <mxGeometry relative="1" as="geometry" />
        </mxCell>
        <mxCell id="8Rd9n1IpjqdqJiG8g8nQ-81" style="edgeStyle=orthogonalEdgeStyle;rounded=0;sketch=1;hachureGap=4;jiggle=2;curveFitting=1;orthogonalLoop=1;jettySize=auto;html=1;fontFamily=Architects Daughter;fontSource=https%3A%2F%2Ffonts.googleapis.com%2Fcss%3Ffamily%3DArchitects%2BDaughter;fontSize=16;" parent="1" source="8Rd9n1IpjqdqJiG8g8nQ-2" target="8Rd9n1IpjqdqJiG8g8nQ-79" edge="1">
          <mxGeometry relative="1" as="geometry" />
        </mxCell>
        <mxCell id="8Rd9n1IpjqdqJiG8g8nQ-82" style="edgeStyle=orthogonalEdgeStyle;rounded=0;sketch=1;hachureGap=4;jiggle=2;curveFitting=1;orthogonalLoop=1;jettySize=auto;html=1;fontFamily=Architects Daughter;fontSource=https%3A%2F%2Ffonts.googleapis.com%2Fcss%3Ffamily%3DArchitects%2BDaughter;fontSize=16;" parent="1" source="8Rd9n1IpjqdqJiG8g8nQ-2" target="8Rd9n1IpjqdqJiG8g8nQ-78" edge="1">
          <mxGeometry relative="1" as="geometry" />
        </mxCell>
        <mxCell id="8Rd9n1IpjqdqJiG8g8nQ-2" value="SkillInfo" style="shape=process;whiteSpace=wrap;html=1;backgroundOutline=1;sketch=1;hachureGap=4;jiggle=2;curveFitting=1;fontFamily=Architects Daughter;fontSource=https%3A%2F%2Ffonts.googleapis.com%2Fcss%3Ffamily%3DArchitects%2BDaughter;fontSize=20;" parent="1" vertex="1">
          <mxGeometry x="-490" y="70" width="160" height="60" as="geometry" />
        </mxCell>
        <mxCell id="8Rd9n1IpjqdqJiG8g8nQ-77" value="LV" style="ellipse;whiteSpace=wrap;html=1;aspect=fixed;sketch=1;hachureGap=4;jiggle=2;curveFitting=1;fontFamily=Architects Daughter;fontSource=https%3A%2F%2Ffonts.googleapis.com%2Fcss%3Ffamily%3DArchitects%2BDaughter;fontSize=20;" parent="1" vertex="1">
          <mxGeometry x="-600" y="270" width="80" height="80" as="geometry" />
        </mxCell>
        <mxCell id="8Rd9n1IpjqdqJiG8g8nQ-78" value="STR" style="ellipse;whiteSpace=wrap;html=1;aspect=fixed;sketch=1;hachureGap=4;jiggle=2;curveFitting=1;fontFamily=Architects Daughter;fontSource=https%3A%2F%2Ffonts.googleapis.com%2Fcss%3Ffamily%3DArchitects%2BDaughter;fontSize=20;" parent="1" vertex="1">
          <mxGeometry x="-450" y="270" width="80" height="80" as="geometry" />
        </mxCell>
        <mxCell id="8Rd9n1IpjqdqJiG8g8nQ-79" value="TYPE" style="ellipse;whiteSpace=wrap;html=1;aspect=fixed;sketch=1;hachureGap=4;jiggle=2;curveFitting=1;fontFamily=Architects Daughter;fontSource=https%3A%2F%2Ffonts.googleapis.com%2Fcss%3Ffamily%3DArchitects%2BDaughter;fontSize=20;" parent="1" vertex="1">
          <mxGeometry x="-295" y="270" width="80" height="80" as="geometry" />
        </mxCell>
        <mxCell id="2FHCuifBLrWcCxierwZi-79" value="" style="rounded=0;whiteSpace=wrap;html=1;sketch=1;hachureGap=4;jiggle=2;curveFitting=1;fontFamily=Architects Daughter;fontSource=https%3A%2F%2Ffonts.googleapis.com%2Fcss%3Ffamily%3DArchitects%2BDaughter;fontSize=20;" vertex="1" parent="1">
          <mxGeometry x="-1960" y="2050" width="120" height="60" as="geometry" />
        </mxCell>
        <mxCell id="8Rd9n1IpjqdqJiG8g8nQ-18" value="Lv" parent="0" />
        <mxCell id="8Rd9n1IpjqdqJiG8g8nQ-20" value="" style="edgeStyle=orthogonalEdgeStyle;rounded=0;sketch=1;hachureGap=4;jiggle=2;curveFitting=1;orthogonalLoop=1;jettySize=auto;html=1;fontFamily=Architects Daughter;fontSource=https%3A%2F%2Ffonts.googleapis.com%2Fcss%3Ffamily%3DArchitects%2BDaughter;fontSize=16;" parent="8Rd9n1IpjqdqJiG8g8nQ-18" source="8Rd9n1IpjqdqJiG8g8nQ-21" target="8Rd9n1IpjqdqJiG8g8nQ-26" edge="1">
          <mxGeometry relative="1" as="geometry" />
        </mxCell>
        <mxCell id="8Rd9n1IpjqdqJiG8g8nQ-21" value="ReallyLv" style="rounded=0;whiteSpace=wrap;html=1;sketch=1;hachureGap=4;jiggle=2;curveFitting=1;fontFamily=Architects Daughter;fontSource=https%3A%2F%2Ffonts.googleapis.com%2Fcss%3Ffamily%3DArchitects%2BDaughter;fontSize=20;align=center;" parent="8Rd9n1IpjqdqJiG8g8nQ-18" vertex="1">
          <mxGeometry x="240" y="40" width="160" height="60" as="geometry" />
        </mxCell>
        <mxCell id="8Rd9n1IpjqdqJiG8g8nQ-22" value="" style="edgeStyle=orthogonalEdgeStyle;rounded=0;sketch=1;hachureGap=4;jiggle=2;curveFitting=1;orthogonalLoop=1;jettySize=auto;html=1;fontFamily=Architects Daughter;fontSource=https%3A%2F%2Ffonts.googleapis.com%2Fcss%3Ffamily%3DArchitects%2BDaughter;fontSize=16;" parent="8Rd9n1IpjqdqJiG8g8nQ-18" source="8Rd9n1IpjqdqJiG8g8nQ-23" target="8Rd9n1IpjqdqJiG8g8nQ-27" edge="1">
          <mxGeometry relative="1" as="geometry" />
        </mxCell>
        <mxCell id="8Rd9n1IpjqdqJiG8g8nQ-23" value="TempLv" style="rounded=0;whiteSpace=wrap;html=1;sketch=1;hachureGap=4;jiggle=2;curveFitting=1;fontFamily=Architects Daughter;fontSource=https%3A%2F%2Ffonts.googleapis.com%2Fcss%3Ffamily%3DArchitects%2BDaughter;fontSize=20;align=center;" parent="8Rd9n1IpjqdqJiG8g8nQ-18" vertex="1">
          <mxGeometry x="240" y="120" width="160" height="60" as="geometry" />
        </mxCell>
        <mxCell id="8Rd9n1IpjqdqJiG8g8nQ-24" value="" style="edgeStyle=orthogonalEdgeStyle;rounded=0;sketch=1;hachureGap=4;jiggle=2;curveFitting=1;orthogonalLoop=1;jettySize=auto;html=1;fontFamily=Architects Daughter;fontSource=https%3A%2F%2Ffonts.googleapis.com%2Fcss%3Ffamily%3DArchitects%2BDaughter;fontSize=16;" parent="8Rd9n1IpjqdqJiG8g8nQ-18" source="8Rd9n1IpjqdqJiG8g8nQ-25" target="8Rd9n1IpjqdqJiG8g8nQ-28" edge="1">
          <mxGeometry relative="1" as="geometry" />
        </mxCell>
        <mxCell id="8Rd9n1IpjqdqJiG8g8nQ-25" value="ShowLv" style="rounded=0;whiteSpace=wrap;html=1;sketch=1;hachureGap=4;jiggle=2;curveFitting=1;fontFamily=Architects Daughter;fontSource=https%3A%2F%2Ffonts.googleapis.com%2Fcss%3Ffamily%3DArchitects%2BDaughter;fontSize=20;align=center;" parent="8Rd9n1IpjqdqJiG8g8nQ-18" vertex="1">
          <mxGeometry x="240" y="200" width="160" height="60" as="geometry" />
        </mxCell>
        <mxCell id="8Rd9n1IpjqdqJiG8g8nQ-26" value="真实的技能等级和服务器一致" style="rounded=0;whiteSpace=wrap;html=1;sketch=1;hachureGap=4;jiggle=2;curveFitting=1;fontFamily=Architects Daughter;fontSource=https%3A%2F%2Ffonts.googleapis.com%2Fcss%3Ffamily%3DArchitects%2BDaughter;fontSize=18;align=center;" parent="8Rd9n1IpjqdqJiG8g8nQ-18" vertex="1">
          <mxGeometry x="480" y="40" width="160" height="60" as="geometry" />
        </mxCell>
        <mxCell id="8Rd9n1IpjqdqJiG8g8nQ-27" value="临时加点技能等级" style="rounded=0;whiteSpace=wrap;html=1;sketch=1;hachureGap=4;jiggle=2;curveFitting=1;fontFamily=Architects Daughter;fontSource=https%3A%2F%2Ffonts.googleapis.com%2Fcss%3Ffamily%3DArchitects%2BDaughter;fontSize=18;align=center;fillColor=#dae8fc;strokeColor=#6c8ebf;" parent="8Rd9n1IpjqdqJiG8g8nQ-18" vertex="1">
          <mxGeometry x="480" y="120" width="160" height="60" as="geometry" />
        </mxCell>
        <mxCell id="8Rd9n1IpjqdqJiG8g8nQ-28" value="tips展示使用等级" style="rounded=0;whiteSpace=wrap;html=1;sketch=1;hachureGap=4;jiggle=2;curveFitting=1;fontFamily=Architects Daughter;fontSource=https%3A%2F%2Ffonts.googleapis.com%2Fcss%3Ffamily%3DArchitects%2BDaughter;fontSize=18;align=center;fillColor=#dae8fc;strokeColor=#6c8ebf;" parent="8Rd9n1IpjqdqJiG8g8nQ-18" vertex="1">
          <mxGeometry x="480" y="200" width="160" height="60" as="geometry" />
        </mxCell>
        <mxCell id="8Rd9n1IpjqdqJiG8g8nQ-61" style="edgeStyle=orthogonalEdgeStyle;rounded=0;sketch=1;hachureGap=4;jiggle=2;curveFitting=1;orthogonalLoop=1;jettySize=auto;html=1;exitX=1;exitY=0.5;exitDx=0;exitDy=0;entryX=0;entryY=0.5;entryDx=0;entryDy=0;fontFamily=Architects Daughter;fontSource=https%3A%2F%2Ffonts.googleapis.com%2Fcss%3Ffamily%3DArchitects%2BDaughter;fontSize=16;" parent="8Rd9n1IpjqdqJiG8g8nQ-18" source="8Rd9n1IpjqdqJiG8g8nQ-60" target="8Rd9n1IpjqdqJiG8g8nQ-21" edge="1">
          <mxGeometry relative="1" as="geometry" />
        </mxCell>
        <mxCell id="8Rd9n1IpjqdqJiG8g8nQ-62" style="edgeStyle=orthogonalEdgeStyle;rounded=0;sketch=1;hachureGap=4;jiggle=2;curveFitting=1;orthogonalLoop=1;jettySize=auto;html=1;exitX=1;exitY=0.5;exitDx=0;exitDy=0;entryX=0;entryY=0.5;entryDx=0;entryDy=0;fontFamily=Architects Daughter;fontSource=https%3A%2F%2Ffonts.googleapis.com%2Fcss%3Ffamily%3DArchitects%2BDaughter;fontSize=16;" parent="8Rd9n1IpjqdqJiG8g8nQ-18" source="8Rd9n1IpjqdqJiG8g8nQ-60" target="8Rd9n1IpjqdqJiG8g8nQ-23" edge="1">
          <mxGeometry relative="1" as="geometry" />
        </mxCell>
        <mxCell id="8Rd9n1IpjqdqJiG8g8nQ-63" style="edgeStyle=orthogonalEdgeStyle;rounded=0;sketch=1;hachureGap=4;jiggle=2;curveFitting=1;orthogonalLoop=1;jettySize=auto;html=1;exitX=1;exitY=0.5;exitDx=0;exitDy=0;entryX=0;entryY=0.5;entryDx=0;entryDy=0;fontFamily=Architects Daughter;fontSource=https%3A%2F%2Ffonts.googleapis.com%2Fcss%3Ffamily%3DArchitects%2BDaughter;fontSize=16;" parent="8Rd9n1IpjqdqJiG8g8nQ-18" source="8Rd9n1IpjqdqJiG8g8nQ-60" target="8Rd9n1IpjqdqJiG8g8nQ-25" edge="1">
          <mxGeometry relative="1" as="geometry" />
        </mxCell>
        <mxCell id="8Rd9n1IpjqdqJiG8g8nQ-60" value="LV" style="ellipse;whiteSpace=wrap;html=1;aspect=fixed;sketch=1;hachureGap=4;jiggle=2;curveFitting=1;fontFamily=Architects Daughter;fontSource=https%3A%2F%2Ffonts.googleapis.com%2Fcss%3Ffamily%3DArchitects%2BDaughter;fontSize=20;" parent="8Rd9n1IpjqdqJiG8g8nQ-18" vertex="1">
          <mxGeometry x="50" y="110" width="80" height="80" as="geometry" />
        </mxCell>
        <mxCell id="8Rd9n1IpjqdqJiG8g8nQ-30" value="String" parent="0" />
        <mxCell id="8Rd9n1IpjqdqJiG8g8nQ-38" value="" style="edgeStyle=orthogonalEdgeStyle;rounded=0;sketch=1;hachureGap=4;jiggle=2;curveFitting=1;orthogonalLoop=1;jettySize=auto;html=1;fontFamily=Architects Daughter;fontSource=https%3A%2F%2Ffonts.googleapis.com%2Fcss%3Ffamily%3DArchitects%2BDaughter;fontSize=16;" parent="8Rd9n1IpjqdqJiG8g8nQ-30" source="8Rd9n1IpjqdqJiG8g8nQ-31" target="8Rd9n1IpjqdqJiG8g8nQ-37" edge="1">
          <mxGeometry relative="1" as="geometry" />
        </mxCell>
        <mxCell id="8Rd9n1IpjqdqJiG8g8nQ-31" value="UseStr" style="rounded=0;whiteSpace=wrap;html=1;sketch=1;hachureGap=4;jiggle=2;curveFitting=1;fontFamily=Architects Daughter;fontSource=https%3A%2F%2Ffonts.googleapis.com%2Fcss%3Ffamily%3DArchitects%2BDaughter;fontSize=20;align=center;flipH=1;flipV=1;" parent="8Rd9n1IpjqdqJiG8g8nQ-30" vertex="1">
          <mxGeometry x="240" y="290" width="160" height="60" as="geometry" />
        </mxCell>
        <mxCell id="8Rd9n1IpjqdqJiG8g8nQ-40" value="" style="edgeStyle=orthogonalEdgeStyle;rounded=0;sketch=1;hachureGap=4;jiggle=2;curveFitting=1;orthogonalLoop=1;jettySize=auto;html=1;fontFamily=Architects Daughter;fontSource=https%3A%2F%2Ffonts.googleapis.com%2Fcss%3Ffamily%3DArchitects%2BDaughter;fontSize=16;" parent="8Rd9n1IpjqdqJiG8g8nQ-30" source="8Rd9n1IpjqdqJiG8g8nQ-33" target="8Rd9n1IpjqdqJiG8g8nQ-39" edge="1">
          <mxGeometry relative="1" as="geometry" />
        </mxCell>
        <mxCell id="8Rd9n1IpjqdqJiG8g8nQ-33" value="SkillStr" style="rounded=0;whiteSpace=wrap;html=1;sketch=1;hachureGap=4;jiggle=2;curveFitting=1;fontFamily=Architects Daughter;fontSource=https%3A%2F%2Ffonts.googleapis.com%2Fcss%3Ffamily%3DArchitects%2BDaughter;fontSize=20;align=center;flipH=1;flipV=1;" parent="8Rd9n1IpjqdqJiG8g8nQ-30" vertex="1">
          <mxGeometry x="240" y="370" width="160" height="60" as="geometry" />
        </mxCell>
        <mxCell id="8Rd9n1IpjqdqJiG8g8nQ-42" value="" style="edgeStyle=orthogonalEdgeStyle;rounded=0;sketch=1;hachureGap=4;jiggle=2;curveFitting=1;orthogonalLoop=1;jettySize=auto;html=1;fontFamily=Architects Daughter;fontSource=https%3A%2F%2Ffonts.googleapis.com%2Fcss%3Ffamily%3DArchitects%2BDaughter;fontSize=16;" parent="8Rd9n1IpjqdqJiG8g8nQ-30" source="8Rd9n1IpjqdqJiG8g8nQ-34" target="8Rd9n1IpjqdqJiG8g8nQ-41" edge="1">
          <mxGeometry relative="1" as="geometry" />
        </mxCell>
        <mxCell id="8Rd9n1IpjqdqJiG8g8nQ-34" value="UpStr" style="rounded=0;whiteSpace=wrap;html=1;sketch=1;hachureGap=4;jiggle=2;curveFitting=1;fontFamily=Architects Daughter;fontSource=https%3A%2F%2Ffonts.googleapis.com%2Fcss%3Ffamily%3DArchitects%2BDaughter;fontSize=20;align=center;flipH=1;flipV=1;" parent="8Rd9n1IpjqdqJiG8g8nQ-30" vertex="1">
          <mxGeometry x="240" y="450" width="160" height="60" as="geometry" />
        </mxCell>
        <mxCell id="8Rd9n1IpjqdqJiG8g8nQ-44" value="" style="edgeStyle=orthogonalEdgeStyle;rounded=0;sketch=1;hachureGap=4;jiggle=2;curveFitting=1;orthogonalLoop=1;jettySize=auto;html=1;fontFamily=Architects Daughter;fontSource=https%3A%2F%2Ffonts.googleapis.com%2Fcss%3Ffamily%3DArchitects%2BDaughter;fontSize=16;" parent="8Rd9n1IpjqdqJiG8g8nQ-30" source="8Rd9n1IpjqdqJiG8g8nQ-35" target="8Rd9n1IpjqdqJiG8g8nQ-43" edge="1">
          <mxGeometry relative="1" as="geometry" />
        </mxCell>
        <mxCell id="8Rd9n1IpjqdqJiG8g8nQ-35" value="StudyStr" style="rounded=0;whiteSpace=wrap;html=1;sketch=1;hachureGap=4;jiggle=2;curveFitting=1;fontFamily=Architects Daughter;fontSource=https%3A%2F%2Ffonts.googleapis.com%2Fcss%3Ffamily%3DArchitects%2BDaughter;fontSize=20;align=center;flipH=1;flipV=1;" parent="8Rd9n1IpjqdqJiG8g8nQ-30" vertex="1">
          <mxGeometry x="240" y="530" width="160" height="60" as="geometry" />
        </mxCell>
        <mxCell id="8Rd9n1IpjqdqJiG8g8nQ-37" value="技能使用描述" style="rounded=0;whiteSpace=wrap;html=1;sketch=1;hachureGap=4;jiggle=2;curveFitting=1;fontFamily=Architects Daughter;fontSource=https%3A%2F%2Ffonts.googleapis.com%2Fcss%3Ffamily%3DArchitects%2BDaughter;fontSize=18;align=center;" parent="8Rd9n1IpjqdqJiG8g8nQ-30" vertex="1">
          <mxGeometry x="480" y="290" width="160" height="60" as="geometry" />
        </mxCell>
        <mxCell id="8Rd9n1IpjqdqJiG8g8nQ-39" value="技能描述" style="rounded=0;whiteSpace=wrap;html=1;sketch=1;hachureGap=4;jiggle=2;curveFitting=1;fontFamily=Architects Daughter;fontSource=https%3A%2F%2Ffonts.googleapis.com%2Fcss%3Ffamily%3DArchitects%2BDaughter;fontSize=18;align=center;" parent="8Rd9n1IpjqdqJiG8g8nQ-30" vertex="1">
          <mxGeometry x="480" y="370" width="160" height="60" as="geometry" />
        </mxCell>
        <mxCell id="8Rd9n1IpjqdqJiG8g8nQ-46" value="" style="edgeStyle=orthogonalEdgeStyle;rounded=0;sketch=1;hachureGap=4;jiggle=2;curveFitting=1;orthogonalLoop=1;jettySize=auto;html=1;fontFamily=Architects Daughter;fontSource=https%3A%2F%2Ffonts.googleapis.com%2Fcss%3Ffamily%3DArchitects%2BDaughter;fontSize=16;" parent="8Rd9n1IpjqdqJiG8g8nQ-30" source="8Rd9n1IpjqdqJiG8g8nQ-41" target="8Rd9n1IpjqdqJiG8g8nQ-45" edge="1">
          <mxGeometry relative="1" as="geometry" />
        </mxCell>
        <mxCell id="8Rd9n1IpjqdqJiG8g8nQ-41" value="技能强化描述" style="rounded=0;whiteSpace=wrap;html=1;sketch=1;hachureGap=4;jiggle=2;curveFitting=1;fontFamily=Architects Daughter;fontSource=https%3A%2F%2Ffonts.googleapis.com%2Fcss%3Ffamily%3DArchitects%2BDaughter;fontSize=18;align=center;fillColor=#dae8fc;strokeColor=#6c8ebf;" parent="8Rd9n1IpjqdqJiG8g8nQ-30" vertex="1">
          <mxGeometry x="480" y="450" width="160" height="60" as="geometry" />
        </mxCell>
        <mxCell id="8Rd9n1IpjqdqJiG8g8nQ-43" value="技能学习条件描述" style="rounded=0;whiteSpace=wrap;html=1;sketch=1;hachureGap=4;jiggle=2;curveFitting=1;fontFamily=Architects Daughter;fontSource=https%3A%2F%2Ffonts.googleapis.com%2Fcss%3Ffamily%3DArchitects%2BDaughter;fontSize=18;align=center;" parent="8Rd9n1IpjqdqJiG8g8nQ-30" vertex="1">
          <mxGeometry x="480" y="530" width="160" height="60" as="geometry" />
        </mxCell>
        <mxCell id="8Rd9n1IpjqdqJiG8g8nQ-45" value="根据被动技能解锁情况，动态添加" style="rounded=0;whiteSpace=wrap;html=1;sketch=1;hachureGap=4;jiggle=2;curveFitting=1;fontFamily=Architects Daughter;fontSource=https%3A%2F%2Ffonts.googleapis.com%2Fcss%3Ffamily%3DArchitects%2BDaughter;fontSize=18;align=center;" parent="8Rd9n1IpjqdqJiG8g8nQ-30" vertex="1">
          <mxGeometry x="720" y="450" width="160" height="60" as="geometry" />
        </mxCell>
        <mxCell id="8Rd9n1IpjqdqJiG8g8nQ-66" style="edgeStyle=orthogonalEdgeStyle;rounded=0;sketch=1;hachureGap=4;jiggle=2;curveFitting=1;orthogonalLoop=1;jettySize=auto;html=1;exitX=1;exitY=0.5;exitDx=0;exitDy=0;entryX=0;entryY=0.5;entryDx=0;entryDy=0;fontFamily=Architects Daughter;fontSource=https%3A%2F%2Ffonts.googleapis.com%2Fcss%3Ffamily%3DArchitects%2BDaughter;fontSize=16;" parent="8Rd9n1IpjqdqJiG8g8nQ-30" source="8Rd9n1IpjqdqJiG8g8nQ-65" target="8Rd9n1IpjqdqJiG8g8nQ-31" edge="1">
          <mxGeometry relative="1" as="geometry" />
        </mxCell>
        <mxCell id="8Rd9n1IpjqdqJiG8g8nQ-67" style="edgeStyle=orthogonalEdgeStyle;rounded=0;sketch=1;hachureGap=4;jiggle=2;curveFitting=1;orthogonalLoop=1;jettySize=auto;html=1;exitX=1;exitY=0.5;exitDx=0;exitDy=0;fontFamily=Architects Daughter;fontSource=https%3A%2F%2Ffonts.googleapis.com%2Fcss%3Ffamily%3DArchitects%2BDaughter;fontSize=16;" parent="8Rd9n1IpjqdqJiG8g8nQ-30" source="8Rd9n1IpjqdqJiG8g8nQ-65" target="8Rd9n1IpjqdqJiG8g8nQ-33" edge="1">
          <mxGeometry relative="1" as="geometry" />
        </mxCell>
        <mxCell id="8Rd9n1IpjqdqJiG8g8nQ-68" style="edgeStyle=orthogonalEdgeStyle;rounded=0;sketch=1;hachureGap=4;jiggle=2;curveFitting=1;orthogonalLoop=1;jettySize=auto;html=1;exitX=1;exitY=0.5;exitDx=0;exitDy=0;entryX=0;entryY=0.5;entryDx=0;entryDy=0;fontFamily=Architects Daughter;fontSource=https%3A%2F%2Ffonts.googleapis.com%2Fcss%3Ffamily%3DArchitects%2BDaughter;fontSize=16;" parent="8Rd9n1IpjqdqJiG8g8nQ-30" source="8Rd9n1IpjqdqJiG8g8nQ-65" target="8Rd9n1IpjqdqJiG8g8nQ-34" edge="1">
          <mxGeometry relative="1" as="geometry" />
        </mxCell>
        <mxCell id="8Rd9n1IpjqdqJiG8g8nQ-69" style="edgeStyle=orthogonalEdgeStyle;rounded=0;sketch=1;hachureGap=4;jiggle=2;curveFitting=1;orthogonalLoop=1;jettySize=auto;html=1;exitX=1;exitY=0.5;exitDx=0;exitDy=0;entryX=0;entryY=0.5;entryDx=0;entryDy=0;fontFamily=Architects Daughter;fontSource=https%3A%2F%2Ffonts.googleapis.com%2Fcss%3Ffamily%3DArchitects%2BDaughter;fontSize=16;" parent="8Rd9n1IpjqdqJiG8g8nQ-30" source="8Rd9n1IpjqdqJiG8g8nQ-65" target="8Rd9n1IpjqdqJiG8g8nQ-35" edge="1">
          <mxGeometry relative="1" as="geometry" />
        </mxCell>
        <mxCell id="8Rd9n1IpjqdqJiG8g8nQ-65" value="STR" style="ellipse;whiteSpace=wrap;html=1;aspect=fixed;sketch=1;hachureGap=4;jiggle=2;curveFitting=1;fontFamily=Architects Daughter;fontSource=https%3A%2F%2Ffonts.googleapis.com%2Fcss%3Ffamily%3DArchitects%2BDaughter;fontSize=20;" parent="8Rd9n1IpjqdqJiG8g8nQ-30" vertex="1">
          <mxGeometry x="50" y="400" width="80" height="80" as="geometry" />
        </mxCell>
        <mxCell id="8Rd9n1IpjqdqJiG8g8nQ-32" value="Type" parent="0" />
        <mxCell id="8Rd9n1IpjqdqJiG8g8nQ-55" value="" style="edgeStyle=orthogonalEdgeStyle;rounded=0;sketch=1;hachureGap=4;jiggle=2;curveFitting=1;orthogonalLoop=1;jettySize=auto;html=1;fontFamily=Architects Daughter;fontSource=https%3A%2F%2Ffonts.googleapis.com%2Fcss%3Ffamily%3DArchitects%2BDaughter;fontSize=16;" parent="8Rd9n1IpjqdqJiG8g8nQ-32" source="8Rd9n1IpjqdqJiG8g8nQ-47" target="8Rd9n1IpjqdqJiG8g8nQ-54" edge="1">
          <mxGeometry relative="1" as="geometry" />
        </mxCell>
        <mxCell id="8Rd9n1IpjqdqJiG8g8nQ-47" value="Active" style="rounded=0;whiteSpace=wrap;html=1;sketch=1;hachureGap=4;jiggle=2;curveFitting=1;fontFamily=Architects Daughter;fontSource=https%3A%2F%2Ffonts.googleapis.com%2Fcss%3Ffamily%3DArchitects%2BDaughter;fontSize=20;align=center;" parent="8Rd9n1IpjqdqJiG8g8nQ-32" vertex="1">
          <mxGeometry x="240" y="630" width="160" height="60" as="geometry" />
        </mxCell>
        <mxCell id="8Rd9n1IpjqdqJiG8g8nQ-59" value="" style="edgeStyle=orthogonalEdgeStyle;rounded=0;sketch=1;hachureGap=4;jiggle=2;curveFitting=1;orthogonalLoop=1;jettySize=auto;html=1;fontFamily=Architects Daughter;fontSource=https%3A%2F%2Ffonts.googleapis.com%2Fcss%3Ffamily%3DArchitects%2BDaughter;fontSize=16;" parent="8Rd9n1IpjqdqJiG8g8nQ-32" source="8Rd9n1IpjqdqJiG8g8nQ-48" target="8Rd9n1IpjqdqJiG8g8nQ-58" edge="1">
          <mxGeometry relative="1" as="geometry" />
        </mxCell>
        <mxCell id="8Rd9n1IpjqdqJiG8g8nQ-48" value="Passive&amp;nbsp;" style="rounded=0;whiteSpace=wrap;html=1;sketch=1;hachureGap=4;jiggle=2;curveFitting=1;fontFamily=Architects Daughter;fontSource=https%3A%2F%2Ffonts.googleapis.com%2Fcss%3Ffamily%3DArchitects%2BDaughter;fontSize=20;align=center;" parent="8Rd9n1IpjqdqJiG8g8nQ-32" vertex="1">
          <mxGeometry x="240" y="790" width="160" height="60" as="geometry" />
        </mxCell>
        <mxCell id="8Rd9n1IpjqdqJiG8g8nQ-57" value="" style="edgeStyle=orthogonalEdgeStyle;rounded=0;sketch=1;hachureGap=4;jiggle=2;curveFitting=1;orthogonalLoop=1;jettySize=auto;html=1;fontFamily=Architects Daughter;fontSource=https%3A%2F%2Ffonts.googleapis.com%2Fcss%3Ffamily%3DArchitects%2BDaughter;fontSize=16;" parent="8Rd9n1IpjqdqJiG8g8nQ-32" source="8Rd9n1IpjqdqJiG8g8nQ-53" target="8Rd9n1IpjqdqJiG8g8nQ-56" edge="1">
          <mxGeometry relative="1" as="geometry" />
        </mxCell>
        <mxCell id="8Rd9n1IpjqdqJiG8g8nQ-53" value="StaticActive" style="rounded=0;whiteSpace=wrap;html=1;sketch=1;hachureGap=4;jiggle=2;curveFitting=1;fontFamily=Architects Daughter;fontSource=https%3A%2F%2Ffonts.googleapis.com%2Fcss%3Ffamily%3DArchitects%2BDaughter;fontSize=20;align=center;" parent="8Rd9n1IpjqdqJiG8g8nQ-32" vertex="1">
          <mxGeometry x="240" y="710" width="160" height="60" as="geometry" />
        </mxCell>
        <mxCell id="8Rd9n1IpjqdqJiG8g8nQ-54" value="主动学习的主动技能" style="rounded=0;whiteSpace=wrap;html=1;sketch=1;hachureGap=4;jiggle=2;curveFitting=1;fontFamily=Architects Daughter;fontSource=https%3A%2F%2Ffonts.googleapis.com%2Fcss%3Ffamily%3DArchitects%2BDaughter;fontSize=18;align=center;" parent="8Rd9n1IpjqdqJiG8g8nQ-32" vertex="1">
          <mxGeometry x="480" y="630" width="160" height="60" as="geometry" />
        </mxCell>
        <mxCell id="8Rd9n1IpjqdqJiG8g8nQ-56" value="自动学习的主动技能" style="rounded=0;whiteSpace=wrap;html=1;sketch=1;hachureGap=4;jiggle=2;curveFitting=1;fontFamily=Architects Daughter;fontSource=https%3A%2F%2Ffonts.googleapis.com%2Fcss%3Ffamily%3DArchitects%2BDaughter;fontSize=18;align=center;" parent="8Rd9n1IpjqdqJiG8g8nQ-32" vertex="1">
          <mxGeometry x="480" y="710" width="160" height="60" as="geometry" />
        </mxCell>
        <mxCell id="8Rd9n1IpjqdqJiG8g8nQ-58" value="被动技能" style="rounded=0;whiteSpace=wrap;html=1;sketch=1;hachureGap=4;jiggle=2;curveFitting=1;fontFamily=Architects Daughter;fontSource=https%3A%2F%2Ffonts.googleapis.com%2Fcss%3Ffamily%3DArchitects%2BDaughter;fontSize=18;align=center;" parent="8Rd9n1IpjqdqJiG8g8nQ-32" vertex="1">
          <mxGeometry x="480" y="790" width="160" height="60" as="geometry" />
        </mxCell>
        <mxCell id="8Rd9n1IpjqdqJiG8g8nQ-71" style="edgeStyle=orthogonalEdgeStyle;rounded=0;sketch=1;hachureGap=4;jiggle=2;curveFitting=1;orthogonalLoop=1;jettySize=auto;html=1;exitX=1;exitY=0.5;exitDx=0;exitDy=0;fontFamily=Architects Daughter;fontSource=https%3A%2F%2Ffonts.googleapis.com%2Fcss%3Ffamily%3DArchitects%2BDaughter;fontSize=16;" parent="8Rd9n1IpjqdqJiG8g8nQ-32" source="8Rd9n1IpjqdqJiG8g8nQ-70" target="8Rd9n1IpjqdqJiG8g8nQ-47" edge="1">
          <mxGeometry relative="1" as="geometry">
            <Array as="points">
              <mxPoint x="180" y="740" />
              <mxPoint x="180" y="660" />
            </Array>
          </mxGeometry>
        </mxCell>
        <mxCell id="8Rd9n1IpjqdqJiG8g8nQ-72" style="edgeStyle=orthogonalEdgeStyle;rounded=0;sketch=1;hachureGap=4;jiggle=2;curveFitting=1;orthogonalLoop=1;jettySize=auto;html=1;exitX=1;exitY=0.5;exitDx=0;exitDy=0;fontFamily=Architects Daughter;fontSource=https%3A%2F%2Ffonts.googleapis.com%2Fcss%3Ffamily%3DArchitects%2BDaughter;fontSize=16;" parent="8Rd9n1IpjqdqJiG8g8nQ-32" source="8Rd9n1IpjqdqJiG8g8nQ-70" target="8Rd9n1IpjqdqJiG8g8nQ-53" edge="1">
          <mxGeometry relative="1" as="geometry" />
        </mxCell>
        <mxCell id="8Rd9n1IpjqdqJiG8g8nQ-73" style="edgeStyle=orthogonalEdgeStyle;rounded=0;sketch=1;hachureGap=4;jiggle=2;curveFitting=1;orthogonalLoop=1;jettySize=auto;html=1;exitX=1;exitY=0.5;exitDx=0;exitDy=0;entryX=0;entryY=0.5;entryDx=0;entryDy=0;fontFamily=Architects Daughter;fontSource=https%3A%2F%2Ffonts.googleapis.com%2Fcss%3Ffamily%3DArchitects%2BDaughter;fontSize=16;" parent="8Rd9n1IpjqdqJiG8g8nQ-32" source="8Rd9n1IpjqdqJiG8g8nQ-70" target="8Rd9n1IpjqdqJiG8g8nQ-48" edge="1">
          <mxGeometry relative="1" as="geometry">
            <Array as="points">
              <mxPoint x="180" y="740" />
              <mxPoint x="180" y="820" />
            </Array>
          </mxGeometry>
        </mxCell>
        <mxCell id="8Rd9n1IpjqdqJiG8g8nQ-70" value="TYPE" style="ellipse;whiteSpace=wrap;html=1;aspect=fixed;sketch=1;hachureGap=4;jiggle=2;curveFitting=1;fontFamily=Architects Daughter;fontSource=https%3A%2F%2Ffonts.googleapis.com%2Fcss%3Ffamily%3DArchitects%2BDaughter;fontSize=20;" parent="8Rd9n1IpjqdqJiG8g8nQ-32" vertex="1">
          <mxGeometry x="50" y="700" width="80" height="80" as="geometry" />
        </mxCell>
        <mxCell id="8Rd9n1IpjqdqJiG8g8nQ-83" value="AddAndReduce" parent="0" />
        <mxCell id="8Rd9n1IpjqdqJiG8g8nQ-86" style="edgeStyle=orthogonalEdgeStyle;rounded=0;sketch=1;hachureGap=4;jiggle=2;curveFitting=1;orthogonalLoop=1;jettySize=auto;html=1;entryX=0.5;entryY=0;entryDx=0;entryDy=0;fontFamily=Architects Daughter;fontSource=https%3A%2F%2Ffonts.googleapis.com%2Fcss%3Ffamily%3DArchitects%2BDaughter;fontSize=16;" parent="8Rd9n1IpjqdqJiG8g8nQ-83" source="8Rd9n1IpjqdqJiG8g8nQ-84" target="8Rd9n1IpjqdqJiG8g8nQ-85" edge="1">
          <mxGeometry relative="1" as="geometry" />
        </mxCell>
        <mxCell id="8Rd9n1IpjqdqJiG8g8nQ-84" value="AddAndReduce" style="ellipse;whiteSpace=wrap;html=1;aspect=fixed;sketch=1;hachureGap=4;jiggle=2;curveFitting=1;fontFamily=Architects Daughter;fontSource=https%3A%2F%2Ffonts.googleapis.com%2Fcss%3Ffamily%3DArchitects%2BDaughter;fontSize=20;" parent="8Rd9n1IpjqdqJiG8g8nQ-83" vertex="1">
          <mxGeometry x="450" y="880" width="150" height="150" as="geometry" />
        </mxCell>
        <mxCell id="8Rd9n1IpjqdqJiG8g8nQ-88" style="edgeStyle=orthogonalEdgeStyle;rounded=0;sketch=1;hachureGap=4;jiggle=2;curveFitting=1;orthogonalLoop=1;jettySize=auto;html=1;fontFamily=Architects Daughter;fontSource=https%3A%2F%2Ffonts.googleapis.com%2Fcss%3Ffamily%3DArchitects%2BDaughter;fontSize=16;entryX=0.5;entryY=0;entryDx=0;entryDy=0;" parent="8Rd9n1IpjqdqJiG8g8nQ-83" source="8Rd9n1IpjqdqJiG8g8nQ-85" target="8Rd9n1IpjqdqJiG8g8nQ-100" edge="1">
          <mxGeometry relative="1" as="geometry">
            <mxPoint x="525" y="1210.5" as="targetPoint" />
          </mxGeometry>
        </mxCell>
        <mxCell id="8Rd9n1IpjqdqJiG8g8nQ-89" value="Add" style="edgeLabel;html=1;align=center;verticalAlign=middle;resizable=0;points=[];fontSize=20;fontFamily=Architects Daughter;" parent="8Rd9n1IpjqdqJiG8g8nQ-88" vertex="1" connectable="0">
          <mxGeometry x="-0.0759" y="1" relative="1" as="geometry">
            <mxPoint as="offset" />
          </mxGeometry>
        </mxCell>
        <mxCell id="8Rd9n1IpjqdqJiG8g8nQ-92" value="" style="edgeStyle=orthogonalEdgeStyle;rounded=0;sketch=1;hachureGap=4;jiggle=2;curveFitting=1;orthogonalLoop=1;jettySize=auto;html=1;fontFamily=Architects Daughter;fontSource=https%3A%2F%2Ffonts.googleapis.com%2Fcss%3Ffamily%3DArchitects%2BDaughter;fontSize=16;" parent="8Rd9n1IpjqdqJiG8g8nQ-83" source="8Rd9n1IpjqdqJiG8g8nQ-85" target="8Rd9n1IpjqdqJiG8g8nQ-91" edge="1">
          <mxGeometry relative="1" as="geometry" />
        </mxCell>
        <mxCell id="8Rd9n1IpjqdqJiG8g8nQ-93" value="Reduce" style="edgeLabel;html=1;align=center;verticalAlign=middle;resizable=0;points=[];fontSize=20;fontFamily=Architects Daughter;" parent="8Rd9n1IpjqdqJiG8g8nQ-92" vertex="1" connectable="0">
          <mxGeometry x="-0.031" relative="1" as="geometry">
            <mxPoint as="offset" />
          </mxGeometry>
        </mxCell>
        <mxCell id="8Rd9n1IpjqdqJiG8g8nQ-85" value="Add?" style="rhombus;whiteSpace=wrap;html=1;sketch=1;hachureGap=4;jiggle=2;curveFitting=1;fontFamily=Architects Daughter;fontSource=https%3A%2F%2Ffonts.googleapis.com%2Fcss%3Ffamily%3DArchitects%2BDaughter;fontSize=20;" parent="8Rd9n1IpjqdqJiG8g8nQ-83" vertex="1">
          <mxGeometry x="485" y="1080" width="80" height="80" as="geometry" />
        </mxCell>
        <mxCell id="8Rd9n1IpjqdqJiG8g8nQ-95" style="edgeStyle=orthogonalEdgeStyle;rounded=0;sketch=1;hachureGap=4;jiggle=2;curveFitting=1;orthogonalLoop=1;jettySize=auto;html=1;fontFamily=Architects Daughter;fontSource=https%3A%2F%2Ffonts.googleapis.com%2Fcss%3Ffamily%3DArchitects%2BDaughter;fontSize=16;" parent="8Rd9n1IpjqdqJiG8g8nQ-83" source="8Rd9n1IpjqdqJiG8g8nQ-91" target="8Rd9n1IpjqdqJiG8g8nQ-94" edge="1">
          <mxGeometry relative="1" as="geometry" />
        </mxCell>
        <mxCell id="8Rd9n1IpjqdqJiG8g8nQ-96" value="No" style="edgeLabel;html=1;align=center;verticalAlign=middle;resizable=0;points=[];fontSize=20;fontFamily=Architects Daughter;" parent="8Rd9n1IpjqdqJiG8g8nQ-95" vertex="1" connectable="0">
          <mxGeometry x="0.2639" y="-3" relative="1" as="geometry">
            <mxPoint as="offset" />
          </mxGeometry>
        </mxCell>
        <mxCell id="8Rd9n1IpjqdqJiG8g8nQ-98" style="edgeStyle=orthogonalEdgeStyle;rounded=0;sketch=1;hachureGap=4;jiggle=2;curveFitting=1;orthogonalLoop=1;jettySize=auto;html=1;exitX=0.5;exitY=1;exitDx=0;exitDy=0;fontFamily=Architects Daughter;fontSource=https%3A%2F%2Ffonts.googleapis.com%2Fcss%3Ffamily%3DArchitects%2BDaughter;fontSize=16;" parent="8Rd9n1IpjqdqJiG8g8nQ-83" source="8Rd9n1IpjqdqJiG8g8nQ-91" target="8Rd9n1IpjqdqJiG8g8nQ-101" edge="1">
          <mxGeometry relative="1" as="geometry">
            <mxPoint x="710" y="1211" as="targetPoint" />
          </mxGeometry>
        </mxCell>
        <mxCell id="8Rd9n1IpjqdqJiG8g8nQ-99" value="Yes" style="edgeLabel;html=1;align=center;verticalAlign=middle;resizable=0;points=[];fontSize=20;fontFamily=Architects Daughter;" parent="8Rd9n1IpjqdqJiG8g8nQ-98" vertex="1" connectable="0">
          <mxGeometry x="-0.4211" y="2" relative="1" as="geometry">
            <mxPoint as="offset" />
          </mxGeometry>
        </mxCell>
        <mxCell id="8Rd9n1IpjqdqJiG8g8nQ-91" value="CheckDic?" style="rhombus;whiteSpace=wrap;html=1;sketch=1;hachureGap=4;jiggle=2;curveFitting=1;fontFamily=Architects Daughter;fontSource=https%3A%2F%2Ffonts.googleapis.com%2Fcss%3Ffamily%3DArchitects%2BDaughter;fontSize=20;aspect=fixed;" parent="8Rd9n1IpjqdqJiG8g8nQ-83" vertex="1">
          <mxGeometry x="680" y="1060" width="120" height="120" as="geometry" />
        </mxCell>
        <mxCell id="8Rd9n1IpjqdqJiG8g8nQ-94" value="Over" style="shape=parallelogram;perimeter=parallelogramPerimeter;whiteSpace=wrap;html=1;fixedSize=1;sketch=1;hachureGap=4;jiggle=2;curveFitting=1;fontFamily=Architects Daughter;fontSource=https%3A%2F%2Ffonts.googleapis.com%2Fcss%3Ffamily%3DArchitects%2BDaughter;fontSize=20;" parent="8Rd9n1IpjqdqJiG8g8nQ-83" vertex="1">
          <mxGeometry x="880" y="1090" width="120" height="60" as="geometry" />
        </mxCell>
        <mxCell id="8Rd9n1IpjqdqJiG8g8nQ-116" style="edgeStyle=orthogonalEdgeStyle;rounded=0;sketch=1;hachureGap=4;jiggle=2;curveFitting=1;orthogonalLoop=1;jettySize=auto;html=1;fontFamily=Architects Daughter;fontSource=https%3A%2F%2Ffonts.googleapis.com%2Fcss%3Ffamily%3DArchitects%2BDaughter;fontSize=16;" parent="8Rd9n1IpjqdqJiG8g8nQ-83" source="8Rd9n1IpjqdqJiG8g8nQ-100" target="8Rd9n1IpjqdqJiG8g8nQ-115" edge="1">
          <mxGeometry relative="1" as="geometry" />
        </mxCell>
        <mxCell id="8Rd9n1IpjqdqJiG8g8nQ-100" value="AddTempDic" style="rounded=1;whiteSpace=wrap;html=1;sketch=1;hachureGap=4;jiggle=2;curveFitting=1;fontFamily=Architects Daughter;fontSource=https%3A%2F%2Ffonts.googleapis.com%2Fcss%3Ffamily%3DArchitects%2BDaughter;fontSize=20;" parent="8Rd9n1IpjqdqJiG8g8nQ-83" vertex="1">
          <mxGeometry x="465" y="1230" width="120" height="60" as="geometry" />
        </mxCell>
        <mxCell id="8Rd9n1IpjqdqJiG8g8nQ-117" style="edgeStyle=orthogonalEdgeStyle;rounded=0;sketch=1;hachureGap=4;jiggle=2;curveFitting=1;orthogonalLoop=1;jettySize=auto;html=1;entryX=0.5;entryY=0;entryDx=0;entryDy=0;fontFamily=Architects Daughter;fontSource=https%3A%2F%2Ffonts.googleapis.com%2Fcss%3Ffamily%3DArchitects%2BDaughter;fontSize=16;" parent="8Rd9n1IpjqdqJiG8g8nQ-83" source="8Rd9n1IpjqdqJiG8g8nQ-101" target="8Rd9n1IpjqdqJiG8g8nQ-115" edge="1">
          <mxGeometry relative="1" as="geometry" />
        </mxCell>
        <mxCell id="8Rd9n1IpjqdqJiG8g8nQ-101" value="Reduce" style="rounded=1;whiteSpace=wrap;html=1;sketch=1;hachureGap=4;jiggle=2;curveFitting=1;fontFamily=Architects Daughter;fontSource=https%3A%2F%2Ffonts.googleapis.com%2Fcss%3Ffamily%3DArchitects%2BDaughter;fontSize=20;" parent="8Rd9n1IpjqdqJiG8g8nQ-83" vertex="1">
          <mxGeometry x="680" y="1230" width="120" height="60" as="geometry" />
        </mxCell>
        <mxCell id="8Rd9n1IpjqdqJiG8g8nQ-106" value="" style="edgeStyle=orthogonalEdgeStyle;rounded=0;sketch=1;hachureGap=4;jiggle=2;curveFitting=1;orthogonalLoop=1;jettySize=auto;html=1;fontFamily=Architects Daughter;fontSource=https%3A%2F%2Ffonts.googleapis.com%2Fcss%3Ffamily%3DArchitects%2BDaughter;fontSize=16;" parent="8Rd9n1IpjqdqJiG8g8nQ-83" source="8Rd9n1IpjqdqJiG8g8nQ-102" target="8Rd9n1IpjqdqJiG8g8nQ-105" edge="1">
          <mxGeometry relative="1" as="geometry" />
        </mxCell>
        <mxCell id="8Rd9n1IpjqdqJiG8g8nQ-107" value="Yes" style="edgeLabel;html=1;align=center;verticalAlign=middle;resizable=0;points=[];fontSize=20;fontFamily=Architects Daughter;" parent="8Rd9n1IpjqdqJiG8g8nQ-106" vertex="1" connectable="0">
          <mxGeometry x="-0.2208" y="6" relative="1" as="geometry">
            <mxPoint as="offset" />
          </mxGeometry>
        </mxCell>
        <mxCell id="8Rd9n1IpjqdqJiG8g8nQ-112" style="edgeStyle=orthogonalEdgeStyle;rounded=0;sketch=1;hachureGap=4;jiggle=2;curveFitting=1;orthogonalLoop=1;jettySize=auto;html=1;exitX=1;exitY=0.5;exitDx=0;exitDy=0;entryX=0;entryY=0.5;entryDx=0;entryDy=0;fontFamily=Architects Daughter;fontSource=https%3A%2F%2Ffonts.googleapis.com%2Fcss%3Ffamily%3DArchitects%2BDaughter;fontSize=16;" parent="8Rd9n1IpjqdqJiG8g8nQ-83" source="8Rd9n1IpjqdqJiG8g8nQ-102" target="8Rd9n1IpjqdqJiG8g8nQ-111" edge="1">
          <mxGeometry relative="1" as="geometry" />
        </mxCell>
        <mxCell id="8Rd9n1IpjqdqJiG8g8nQ-113" value="No" style="edgeLabel;html=1;align=center;verticalAlign=middle;resizable=0;points=[];fontSize=20;fontFamily=Architects Daughter;" parent="8Rd9n1IpjqdqJiG8g8nQ-112" vertex="1" connectable="0">
          <mxGeometry x="-0.1578" y="3" relative="1" as="geometry">
            <mxPoint as="offset" />
          </mxGeometry>
        </mxCell>
        <mxCell id="8Rd9n1IpjqdqJiG8g8nQ-102" value="CheckCost?" style="rhombus;whiteSpace=wrap;html=1;sketch=1;hachureGap=4;jiggle=2;curveFitting=1;fontFamily=Architects Daughter;fontSource=https%3A%2F%2Ffonts.googleapis.com%2Fcss%3Ffamily%3DArchitects%2BDaughter;fontSize=20;aspect=fixed;" parent="8Rd9n1IpjqdqJiG8g8nQ-83" vertex="1">
          <mxGeometry x="565" y="1510" width="130" height="130" as="geometry" />
        </mxCell>
        <mxCell id="8Rd9n1IpjqdqJiG8g8nQ-105" value="Refresh" style="whiteSpace=wrap;html=1;fontSize=20;fontFamily=Architects Daughter;sketch=1;hachureGap=4;jiggle=2;curveFitting=1;fontSource=https%3A%2F%2Ffonts.googleapis.com%2Fcss%3Ffamily%3DArchitects%2BDaughter;" parent="8Rd9n1IpjqdqJiG8g8nQ-83" vertex="1">
          <mxGeometry x="570" y="1740" width="120" height="60" as="geometry" />
        </mxCell>
        <mxCell id="8Rd9n1IpjqdqJiG8g8nQ-111" value="Over" style="shape=parallelogram;perimeter=parallelogramPerimeter;whiteSpace=wrap;html=1;fixedSize=1;sketch=1;hachureGap=4;jiggle=2;curveFitting=1;fontFamily=Architects Daughter;fontSource=https%3A%2F%2Ffonts.googleapis.com%2Fcss%3Ffamily%3DArchitects%2BDaughter;fontSize=20;" parent="8Rd9n1IpjqdqJiG8g8nQ-83" vertex="1">
          <mxGeometry x="770" y="1545" width="120" height="60" as="geometry" />
        </mxCell>
        <mxCell id="8Rd9n1IpjqdqJiG8g8nQ-118" style="edgeStyle=orthogonalEdgeStyle;rounded=0;sketch=1;hachureGap=4;jiggle=2;curveFitting=1;orthogonalLoop=1;jettySize=auto;html=1;entryX=0.5;entryY=0;entryDx=0;entryDy=0;fontFamily=Architects Daughter;fontSource=https%3A%2F%2Ffonts.googleapis.com%2Fcss%3Ffamily%3DArchitects%2BDaughter;fontSize=16;" parent="8Rd9n1IpjqdqJiG8g8nQ-83" source="8Rd9n1IpjqdqJiG8g8nQ-115" target="8Rd9n1IpjqdqJiG8g8nQ-102" edge="1">
          <mxGeometry relative="1" as="geometry" />
        </mxCell>
        <mxCell id="8Rd9n1IpjqdqJiG8g8nQ-115" value="AddOrReducePoints" style="rounded=1;whiteSpace=wrap;html=1;sketch=1;hachureGap=4;jiggle=2;curveFitting=1;fontFamily=Architects Daughter;fontSource=https%3A%2F%2Ffonts.googleapis.com%2Fcss%3Ffamily%3DArchitects%2BDaughter;fontSize=20;" parent="8Rd9n1IpjqdqJiG8g8nQ-83" vertex="1">
          <mxGeometry x="530" y="1370" width="200" height="60" as="geometry" />
        </mxCell>
        <mxCell id="8Rd9n1IpjqdqJiG8g8nQ-119" value="Related" parent="0" />
        <mxCell id="8Rd9n1IpjqdqJiG8g8nQ-157" style="edgeStyle=orthogonalEdgeStyle;rounded=0;sketch=1;hachureGap=4;jiggle=2;curveFitting=1;orthogonalLoop=1;jettySize=auto;html=1;exitX=1;exitY=0.5;exitDx=0;exitDy=0;entryX=0;entryY=0.5;entryDx=0;entryDy=0;fontFamily=Architects Daughter;fontSource=https%3A%2F%2Ffonts.googleapis.com%2Fcss%3Ffamily%3DArchitects%2BDaughter;fontSize=16;" parent="8Rd9n1IpjqdqJiG8g8nQ-119" source="8Rd9n1IpjqdqJiG8g8nQ-120" target="8Rd9n1IpjqdqJiG8g8nQ-154" edge="1">
          <mxGeometry relative="1" as="geometry" />
        </mxCell>
        <mxCell id="8Rd9n1IpjqdqJiG8g8nQ-158" style="edgeStyle=orthogonalEdgeStyle;rounded=0;sketch=1;hachureGap=4;jiggle=2;curveFitting=1;orthogonalLoop=1;jettySize=auto;html=1;exitX=1;exitY=0.5;exitDx=0;exitDy=0;entryX=0;entryY=0.5;entryDx=0;entryDy=0;fontFamily=Architects Daughter;fontSource=https%3A%2F%2Ffonts.googleapis.com%2Fcss%3Ffamily%3DArchitects%2BDaughter;fontSize=16;" parent="8Rd9n1IpjqdqJiG8g8nQ-119" source="8Rd9n1IpjqdqJiG8g8nQ-120" target="8Rd9n1IpjqdqJiG8g8nQ-155" edge="1">
          <mxGeometry relative="1" as="geometry" />
        </mxCell>
        <mxCell id="8Rd9n1IpjqdqJiG8g8nQ-120" value="Related&lt;br&gt;Skill" style="ellipse;whiteSpace=wrap;html=1;aspect=fixed;sketch=1;hachureGap=4;jiggle=2;curveFitting=1;fontFamily=Architects Daughter;fontSource=https%3A%2F%2Ffonts.googleapis.com%2Fcss%3Ffamily%3DArchitects%2BDaughter;fontSize=20;" parent="8Rd9n1IpjqdqJiG8g8nQ-119" vertex="1">
          <mxGeometry x="-1120" y="350" width="80" height="80" as="geometry" />
        </mxCell>
        <mxCell id="8Rd9n1IpjqdqJiG8g8nQ-137" style="edgeStyle=orthogonalEdgeStyle;rounded=0;sketch=1;hachureGap=4;jiggle=2;curveFitting=1;orthogonalLoop=1;jettySize=auto;html=1;entryX=0.5;entryY=0;entryDx=0;entryDy=0;fontFamily=Architects Daughter;fontSource=https%3A%2F%2Ffonts.googleapis.com%2Fcss%3Ffamily%3DArchitects%2BDaughter;fontSize=16;" parent="8Rd9n1IpjqdqJiG8g8nQ-119" source="8Rd9n1IpjqdqJiG8g8nQ-131" target="8Rd9n1IpjqdqJiG8g8nQ-133" edge="1">
          <mxGeometry relative="1" as="geometry" />
        </mxCell>
        <mxCell id="8Rd9n1IpjqdqJiG8g8nQ-131" value="SkillRefreshDic" style="shape=process;whiteSpace=wrap;html=1;backgroundOutline=1;sketch=1;hachureGap=4;jiggle=2;curveFitting=1;fontFamily=Architects Daughter;fontSource=https%3A%2F%2Ffonts.googleapis.com%2Fcss%3Ffamily%3DArchitects%2BDaughter;fontSize=20;" parent="8Rd9n1IpjqdqJiG8g8nQ-119" vertex="1">
          <mxGeometry x="-1080" y="620" width="240" height="60" as="geometry" />
        </mxCell>
        <mxCell id="8Rd9n1IpjqdqJiG8g8nQ-139" value="" style="edgeStyle=orthogonalEdgeStyle;rounded=0;sketch=1;hachureGap=4;jiggle=2;curveFitting=1;orthogonalLoop=1;jettySize=auto;html=1;fontFamily=Architects Daughter;fontSource=https%3A%2F%2Ffonts.googleapis.com%2Fcss%3Ffamily%3DArchitects%2BDaughter;fontSize=16;" parent="8Rd9n1IpjqdqJiG8g8nQ-119" source="8Rd9n1IpjqdqJiG8g8nQ-141" target="8Rd9n1IpjqdqJiG8g8nQ-138" edge="1">
          <mxGeometry relative="1" as="geometry" />
        </mxCell>
        <mxCell id="8Rd9n1IpjqdqJiG8g8nQ-143" value="Yes" style="edgeLabel;html=1;align=center;verticalAlign=middle;resizable=0;points=[];fontSize=20;fontFamily=Architects Daughter;" parent="8Rd9n1IpjqdqJiG8g8nQ-139" vertex="1" connectable="0">
          <mxGeometry x="-0.3724" y="-6" relative="1" as="geometry">
            <mxPoint as="offset" />
          </mxGeometry>
        </mxCell>
        <mxCell id="8Rd9n1IpjqdqJiG8g8nQ-133" value="HeadSkill" style="rounded=0;whiteSpace=wrap;html=1;sketch=1;hachureGap=4;jiggle=2;curveFitting=1;fontFamily=Architects Daughter;fontSource=https%3A%2F%2Ffonts.googleapis.com%2Fcss%3Ffamily%3DArchitects%2BDaughter;fontSize=20;" parent="8Rd9n1IpjqdqJiG8g8nQ-119" vertex="1">
          <mxGeometry x="-1080" y="790" width="240" height="60" as="geometry" />
        </mxCell>
        <mxCell id="8Rd9n1IpjqdqJiG8g8nQ-148" value="" style="edgeStyle=orthogonalEdgeStyle;rounded=0;sketch=1;hachureGap=4;jiggle=2;curveFitting=1;orthogonalLoop=1;jettySize=auto;html=1;fontFamily=Architects Daughter;fontSource=https%3A%2F%2Ffonts.googleapis.com%2Fcss%3Ffamily%3DArchitects%2BDaughter;fontSize=16;" parent="8Rd9n1IpjqdqJiG8g8nQ-119" source="8Rd9n1IpjqdqJiG8g8nQ-138" target="8Rd9n1IpjqdqJiG8g8nQ-147" edge="1">
          <mxGeometry relative="1" as="geometry" />
        </mxCell>
        <mxCell id="8Rd9n1IpjqdqJiG8g8nQ-138" value="RelatedSkill" style="rounded=0;whiteSpace=wrap;html=1;sketch=1;hachureGap=4;jiggle=2;curveFitting=1;fontFamily=Architects Daughter;fontSource=https%3A%2F%2Ffonts.googleapis.com%2Fcss%3Ffamily%3DArchitects%2BDaughter;fontSize=20;" parent="8Rd9n1IpjqdqJiG8g8nQ-119" vertex="1">
          <mxGeometry x="-490" y="790" width="240" height="60" as="geometry" />
        </mxCell>
        <mxCell id="8Rd9n1IpjqdqJiG8g8nQ-142" value="" style="edgeStyle=orthogonalEdgeStyle;rounded=0;sketch=1;hachureGap=4;jiggle=2;curveFitting=1;orthogonalLoop=1;jettySize=auto;html=1;fontFamily=Architects Daughter;fontSource=https%3A%2F%2Ffonts.googleapis.com%2Fcss%3Ffamily%3DArchitects%2BDaughter;fontSize=16;" parent="8Rd9n1IpjqdqJiG8g8nQ-119" source="8Rd9n1IpjqdqJiG8g8nQ-133" target="8Rd9n1IpjqdqJiG8g8nQ-141" edge="1">
          <mxGeometry relative="1" as="geometry">
            <mxPoint x="-840" y="820" as="sourcePoint" />
            <mxPoint x="-550" y="820" as="targetPoint" />
          </mxGeometry>
        </mxCell>
        <mxCell id="8Rd9n1IpjqdqJiG8g8nQ-145" style="edgeStyle=orthogonalEdgeStyle;rounded=0;sketch=1;hachureGap=4;jiggle=2;curveFitting=1;orthogonalLoop=1;jettySize=auto;html=1;exitX=0.5;exitY=1;exitDx=0;exitDy=0;fontFamily=Architects Daughter;fontSource=https%3A%2F%2Ffonts.googleapis.com%2Fcss%3Ffamily%3DArchitects%2BDaughter;fontSize=16;" parent="8Rd9n1IpjqdqJiG8g8nQ-119" source="8Rd9n1IpjqdqJiG8g8nQ-141" target="8Rd9n1IpjqdqJiG8g8nQ-144" edge="1">
          <mxGeometry relative="1" as="geometry" />
        </mxCell>
        <mxCell id="8Rd9n1IpjqdqJiG8g8nQ-146" value="No" style="edgeLabel;html=1;align=center;verticalAlign=middle;resizable=0;points=[];fontSize=20;fontFamily=Architects Daughter;" parent="8Rd9n1IpjqdqJiG8g8nQ-145" vertex="1" connectable="0">
          <mxGeometry x="-0.1077" y="-2" relative="1" as="geometry">
            <mxPoint y="1" as="offset" />
          </mxGeometry>
        </mxCell>
        <mxCell id="8Rd9n1IpjqdqJiG8g8nQ-141" value="HeadSkill Release?" style="rhombus;whiteSpace=wrap;html=1;sketch=1;hachureGap=4;jiggle=2;curveFitting=1;fontFamily=Architects Daughter;fontSource=https%3A%2F%2Ffonts.googleapis.com%2Fcss%3Ffamily%3DArchitects%2BDaughter;fontSize=20;aspect=fixed;" parent="8Rd9n1IpjqdqJiG8g8nQ-119" vertex="1">
          <mxGeometry x="-740" y="745" width="150" height="150" as="geometry" />
        </mxCell>
        <mxCell id="8Rd9n1IpjqdqJiG8g8nQ-144" value="Over" style="shape=parallelogram;perimeter=parallelogramPerimeter;whiteSpace=wrap;html=1;fixedSize=1;sketch=1;hachureGap=4;jiggle=2;curveFitting=1;fontFamily=Architects Daughter;fontSource=https%3A%2F%2Ffonts.googleapis.com%2Fcss%3Ffamily%3DArchitects%2BDaughter;fontSize=20;" parent="8Rd9n1IpjqdqJiG8g8nQ-119" vertex="1">
          <mxGeometry x="-725" y="960" width="120" height="60" as="geometry" />
        </mxCell>
        <mxCell id="8Rd9n1IpjqdqJiG8g8nQ-150" value="" style="edgeStyle=orthogonalEdgeStyle;rounded=0;sketch=1;hachureGap=4;jiggle=2;curveFitting=1;orthogonalLoop=1;jettySize=auto;html=1;fontFamily=Architects Daughter;fontSource=https%3A%2F%2Ffonts.googleapis.com%2Fcss%3Ffamily%3DArchitects%2BDaughter;fontSize=16;" parent="8Rd9n1IpjqdqJiG8g8nQ-119" source="8Rd9n1IpjqdqJiG8g8nQ-147" target="8Rd9n1IpjqdqJiG8g8nQ-149" edge="1">
          <mxGeometry relative="1" as="geometry" />
        </mxCell>
        <mxCell id="8Rd9n1IpjqdqJiG8g8nQ-151" value="Yes" style="edgeLabel;html=1;align=center;verticalAlign=middle;resizable=0;points=[];fontSize=20;fontFamily=Architects Daughter;" parent="8Rd9n1IpjqdqJiG8g8nQ-150" vertex="1" connectable="0">
          <mxGeometry x="0.1368" y="4" relative="1" as="geometry">
            <mxPoint as="offset" />
          </mxGeometry>
        </mxCell>
        <mxCell id="8Rd9n1IpjqdqJiG8g8nQ-153" style="edgeStyle=orthogonalEdgeStyle;rounded=0;sketch=1;hachureGap=4;jiggle=2;curveFitting=1;orthogonalLoop=1;jettySize=auto;html=1;exitX=0.5;exitY=1;exitDx=0;exitDy=0;fontFamily=Architects Daughter;fontSource=https%3A%2F%2Ffonts.googleapis.com%2Fcss%3Ffamily%3DArchitects%2BDaughter;fontSize=16;" parent="8Rd9n1IpjqdqJiG8g8nQ-119" source="8Rd9n1IpjqdqJiG8g8nQ-147" target="8Rd9n1IpjqdqJiG8g8nQ-152" edge="1">
          <mxGeometry relative="1" as="geometry" />
        </mxCell>
        <mxCell id="8Rd9n1IpjqdqJiG8g8nQ-147" value="RelatedSkill&lt;br&gt;Release?" style="rhombus;whiteSpace=wrap;html=1;fontSize=20;fontFamily=Architects Daughter;rounded=0;sketch=1;hachureGap=4;jiggle=2;curveFitting=1;fontSource=https%3A%2F%2Ffonts.googleapis.com%2Fcss%3Ffamily%3DArchitects%2BDaughter;aspect=fixed;" parent="8Rd9n1IpjqdqJiG8g8nQ-119" vertex="1">
          <mxGeometry x="-445" y="915" width="150" height="150" as="geometry" />
        </mxCell>
        <mxCell id="8Rd9n1IpjqdqJiG8g8nQ-149" value="Refresh&lt;br&gt;RelatedSkill" style="whiteSpace=wrap;html=1;fontSize=20;fontFamily=Architects Daughter;rounded=0;sketch=1;hachureGap=4;jiggle=2;curveFitting=1;fontSource=https%3A%2F%2Ffonts.googleapis.com%2Fcss%3Ffamily%3DArchitects%2BDaughter;" parent="8Rd9n1IpjqdqJiG8g8nQ-119" vertex="1">
          <mxGeometry x="-200" y="960" width="120" height="60" as="geometry" />
        </mxCell>
        <mxCell id="8Rd9n1IpjqdqJiG8g8nQ-152" value="Over" style="shape=parallelogram;perimeter=parallelogramPerimeter;whiteSpace=wrap;html=1;fixedSize=1;sketch=1;hachureGap=4;jiggle=2;curveFitting=1;fontFamily=Architects Daughter;fontSource=https%3A%2F%2Ffonts.googleapis.com%2Fcss%3Ffamily%3DArchitects%2BDaughter;fontSize=20;" parent="8Rd9n1IpjqdqJiG8g8nQ-119" vertex="1">
          <mxGeometry x="-430" y="1100" width="120" height="60" as="geometry" />
        </mxCell>
        <mxCell id="8Rd9n1IpjqdqJiG8g8nQ-154" value="PreSkill" style="rounded=0;whiteSpace=wrap;html=1;sketch=1;hachureGap=4;jiggle=2;curveFitting=1;fontFamily=Architects Daughter;fontSource=https%3A%2F%2Ffonts.googleapis.com%2Fcss%3Ffamily%3DArchitects%2BDaughter;fontSize=20;align=center;" parent="8Rd9n1IpjqdqJiG8g8nQ-119" vertex="1">
          <mxGeometry x="-1000" y="280" width="160" height="60" as="geometry" />
        </mxCell>
        <mxCell id="8Rd9n1IpjqdqJiG8g8nQ-155" value="BackSkill" style="rounded=0;whiteSpace=wrap;html=1;sketch=1;hachureGap=4;jiggle=2;curveFitting=1;fontFamily=Architects Daughter;fontSource=https%3A%2F%2Ffonts.googleapis.com%2Fcss%3Ffamily%3DArchitects%2BDaughter;fontSize=20;align=center;" parent="8Rd9n1IpjqdqJiG8g8nQ-119" vertex="1">
          <mxGeometry x="-1000" y="440" width="160" height="60" as="geometry" />
        </mxCell>
        <mxCell id="8Rd9n1IpjqdqJiG8g8nQ-191" style="edgeStyle=orthogonalEdgeStyle;rounded=0;sketch=1;hachureGap=4;jiggle=2;curveFitting=1;orthogonalLoop=1;jettySize=auto;html=1;entryX=0.5;entryY=0;entryDx=0;entryDy=0;fontFamily=Architects Daughter;fontSource=https%3A%2F%2Ffonts.googleapis.com%2Fcss%3Ffamily%3DArchitects%2BDaughter;fontSize=16;" parent="8Rd9n1IpjqdqJiG8g8nQ-119" source="8Rd9n1IpjqdqJiG8g8nQ-190" target="8Rd9n1IpjqdqJiG8g8nQ-162" edge="1">
          <mxGeometry relative="1" as="geometry">
            <Array as="points">
              <mxPoint x="-630" y="1360" />
            </Array>
          </mxGeometry>
        </mxCell>
        <mxCell id="8Rd9n1IpjqdqJiG8g8nQ-193" style="edgeStyle=orthogonalEdgeStyle;rounded=0;sketch=1;hachureGap=4;jiggle=2;curveFitting=1;orthogonalLoop=1;jettySize=auto;html=1;exitX=0.5;exitY=0;exitDx=0;exitDy=0;entryX=0.5;entryY=0;entryDx=0;entryDy=0;fontFamily=Architects Daughter;fontSource=https%3A%2F%2Ffonts.googleapis.com%2Fcss%3Ffamily%3DArchitects%2BDaughter;fontSize=16;" parent="8Rd9n1IpjqdqJiG8g8nQ-119" source="8Rd9n1IpjqdqJiG8g8nQ-159" target="8Rd9n1IpjqdqJiG8g8nQ-181" edge="1">
          <mxGeometry relative="1" as="geometry">
            <Array as="points">
              <mxPoint x="-1050" y="1280" />
              <mxPoint x="-160" y="1280" />
            </Array>
          </mxGeometry>
        </mxCell>
        <mxCell id="8Rd9n1IpjqdqJiG8g8nQ-205" style="edgeStyle=orthogonalEdgeStyle;rounded=0;sketch=1;hachureGap=4;jiggle=2;curveFitting=1;orthogonalLoop=1;jettySize=auto;html=1;exitX=1;exitY=0.5;exitDx=0;exitDy=0;entryX=0;entryY=0.5;entryDx=0;entryDy=0;fontFamily=Architects Daughter;fontSource=https%3A%2F%2Ffonts.googleapis.com%2Fcss%3Ffamily%3DArchitects%2BDaughter;fontSize=16;" parent="8Rd9n1IpjqdqJiG8g8nQ-119" source="8Rd9n1IpjqdqJiG8g8nQ-159" target="8Rd9n1IpjqdqJiG8g8nQ-204" edge="1">
          <mxGeometry relative="1" as="geometry">
            <Array as="points">
              <mxPoint x="-840" y="1480" />
              <mxPoint x="-840" y="1750" />
            </Array>
          </mxGeometry>
        </mxCell>
        <mxCell id="8Rd9n1IpjqdqJiG8g8nQ-214" style="edgeStyle=orthogonalEdgeStyle;rounded=0;sketch=1;hachureGap=4;jiggle=2;curveFitting=1;orthogonalLoop=1;jettySize=auto;html=1;entryX=0.5;entryY=1;entryDx=0;entryDy=0;fontFamily=Architects Daughter;fontSource=https%3A%2F%2Ffonts.googleapis.com%2Fcss%3Ffamily%3DArchitects%2BDaughter;fontSize=16;" parent="8Rd9n1IpjqdqJiG8g8nQ-119" source="8Rd9n1IpjqdqJiG8g8nQ-159" target="8Rd9n1IpjqdqJiG8g8nQ-204" edge="1">
          <mxGeometry relative="1" as="geometry">
            <Array as="points">
              <mxPoint x="-1050" y="1890" />
              <mxPoint x="-160" y="1890" />
            </Array>
          </mxGeometry>
        </mxCell>
        <mxCell id="8Rd9n1IpjqdqJiG8g8nQ-159" value="200" style="rounded=1;whiteSpace=wrap;html=1;sketch=1;hachureGap=4;jiggle=2;curveFitting=1;fontFamily=Architects Daughter;fontSource=https%3A%2F%2Ffonts.googleapis.com%2Fcss%3Ffamily%3DArchitects%2BDaughter;fontSize=20;" parent="8Rd9n1IpjqdqJiG8g8nQ-119" vertex="1">
          <mxGeometry x="-1110" y="1450" width="120" height="60" as="geometry" />
        </mxCell>
        <mxCell id="8Rd9n1IpjqdqJiG8g8nQ-162" value="200" style="rounded=1;whiteSpace=wrap;html=1;sketch=1;hachureGap=4;jiggle=2;curveFitting=1;fontFamily=Architects Daughter;fontSource=https%3A%2F%2Ffonts.googleapis.com%2Fcss%3Ffamily%3DArchitects%2BDaughter;fontSize=20;" parent="8Rd9n1IpjqdqJiG8g8nQ-119" vertex="1">
          <mxGeometry x="-690" y="1450" width="120" height="60" as="geometry" />
        </mxCell>
        <mxCell id="8Rd9n1IpjqdqJiG8g8nQ-169" value="200" style="rounded=1;whiteSpace=wrap;html=1;sketch=1;hachureGap=4;jiggle=2;curveFitting=1;fontFamily=Architects Daughter;fontSource=https%3A%2F%2Ffonts.googleapis.com%2Fcss%3Ffamily%3DArchitects%2BDaughter;fontSize=20;" parent="8Rd9n1IpjqdqJiG8g8nQ-119" vertex="1">
          <mxGeometry x="-220" y="1580" width="120" height="60" as="geometry" />
        </mxCell>
        <mxCell id="8Rd9n1IpjqdqJiG8g8nQ-175" style="edgeStyle=orthogonalEdgeStyle;rounded=0;sketch=1;hachureGap=4;jiggle=2;curveFitting=1;orthogonalLoop=1;jettySize=auto;html=1;exitX=1;exitY=0.5;exitDx=0;exitDy=0;entryX=0;entryY=0.5;entryDx=0;entryDy=0;fontFamily=Architects Daughter;fontSource=https%3A%2F%2Ffonts.googleapis.com%2Fcss%3Ffamily%3DArchitects%2BDaughter;fontSize=16;" parent="8Rd9n1IpjqdqJiG8g8nQ-119" source="8Rd9n1IpjqdqJiG8g8nQ-159" target="8Rd9n1IpjqdqJiG8g8nQ-169" edge="1">
          <mxGeometry relative="1" as="geometry">
            <Array as="points">
              <mxPoint x="-840" y="1480" />
              <mxPoint x="-840" y="1610" />
            </Array>
          </mxGeometry>
        </mxCell>
        <mxCell id="8Rd9n1IpjqdqJiG8g8nQ-176" style="edgeStyle=orthogonalEdgeStyle;rounded=0;sketch=1;hachureGap=4;jiggle=2;curveFitting=1;orthogonalLoop=1;jettySize=auto;html=1;exitX=1;exitY=0.5;exitDx=0;exitDy=0;fontFamily=Architects Daughter;fontSource=https%3A%2F%2Ffonts.googleapis.com%2Fcss%3Ffamily%3DArchitects%2BDaughter;fontSize=16;" parent="8Rd9n1IpjqdqJiG8g8nQ-119" source="8Rd9n1IpjqdqJiG8g8nQ-159" target="8Rd9n1IpjqdqJiG8g8nQ-162" edge="1">
          <mxGeometry relative="1" as="geometry" />
        </mxCell>
        <mxCell id="8Rd9n1IpjqdqJiG8g8nQ-181" value="200" style="rounded=1;whiteSpace=wrap;html=1;sketch=1;hachureGap=4;jiggle=2;curveFitting=1;fontFamily=Architects Daughter;fontSource=https%3A%2F%2Ffonts.googleapis.com%2Fcss%3Ffamily%3DArchitects%2BDaughter;fontSize=20;" parent="8Rd9n1IpjqdqJiG8g8nQ-119" vertex="1">
          <mxGeometry x="-220" y="1450" width="120" height="60" as="geometry" />
        </mxCell>
        <mxCell id="8Rd9n1IpjqdqJiG8g8nQ-185" value="0" style="text;html=1;align=center;verticalAlign=middle;resizable=0;points=[];autosize=1;strokeColor=#6c8ebf;fillColor=#dae8fc;fontSize=20;fontFamily=Architects Daughter;" parent="8Rd9n1IpjqdqJiG8g8nQ-119" vertex="1">
          <mxGeometry x="-1150" y="1430" width="40" height="40" as="geometry" />
        </mxCell>
        <mxCell id="8Rd9n1IpjqdqJiG8g8nQ-186" value="1" style="text;html=1;align=center;verticalAlign=middle;resizable=0;points=[];autosize=1;strokeColor=#6c8ebf;fillColor=#dae8fc;fontSize=20;fontFamily=Architects Daughter;" parent="8Rd9n1IpjqdqJiG8g8nQ-119" vertex="1">
          <mxGeometry x="-875" y="1430" width="30" height="40" as="geometry" />
        </mxCell>
        <mxCell id="8Rd9n1IpjqdqJiG8g8nQ-187" value="2" style="text;html=1;align=center;verticalAlign=middle;resizable=0;points=[];autosize=1;strokeColor=#6c8ebf;fillColor=#dae8fc;fontSize=20;fontFamily=Architects Daughter;" parent="8Rd9n1IpjqdqJiG8g8nQ-119" vertex="1">
          <mxGeometry x="-725" y="1430" width="30" height="40" as="geometry" />
        </mxCell>
        <mxCell id="8Rd9n1IpjqdqJiG8g8nQ-188" value="3" style="text;html=1;align=center;verticalAlign=middle;resizable=0;points=[];autosize=1;strokeColor=#6c8ebf;fillColor=#dae8fc;fontSize=20;fontFamily=Architects Daughter;" parent="8Rd9n1IpjqdqJiG8g8nQ-119" vertex="1">
          <mxGeometry x="-450" y="1430" width="30" height="40" as="geometry" />
        </mxCell>
        <mxCell id="8Rd9n1IpjqdqJiG8g8nQ-189" value="4" style="text;html=1;align=center;verticalAlign=middle;resizable=0;points=[];autosize=1;strokeColor=#6c8ebf;fillColor=#dae8fc;fontSize=20;fontFamily=Architects Daughter;" parent="8Rd9n1IpjqdqJiG8g8nQ-119" vertex="1">
          <mxGeometry x="-260" y="1430" width="40" height="40" as="geometry" />
        </mxCell>
        <mxCell id="8Rd9n1IpjqdqJiG8g8nQ-192" value="" style="edgeStyle=orthogonalEdgeStyle;rounded=0;sketch=1;hachureGap=4;jiggle=2;curveFitting=1;orthogonalLoop=1;jettySize=auto;html=1;entryX=0.5;entryY=0;entryDx=0;entryDy=0;fontFamily=Architects Daughter;fontSource=https%3A%2F%2Ffonts.googleapis.com%2Fcss%3Ffamily%3DArchitects%2BDaughter;fontSize=16;" parent="8Rd9n1IpjqdqJiG8g8nQ-119" source="8Rd9n1IpjqdqJiG8g8nQ-159" target="8Rd9n1IpjqdqJiG8g8nQ-190" edge="1">
          <mxGeometry relative="1" as="geometry">
            <mxPoint x="-1050" y="1450" as="sourcePoint" />
            <mxPoint x="-630" y="1450" as="targetPoint" />
            <Array as="points">
              <mxPoint x="-1050" y="1360" />
            </Array>
          </mxGeometry>
        </mxCell>
        <mxCell id="8Rd9n1IpjqdqJiG8g8nQ-190" value="2*200+2*offsetX" style="text;html=1;align=center;verticalAlign=middle;resizable=0;points=[];autosize=1;strokeColor=#d79b00;fillColor=#ffe6cc;fontSize=20;fontFamily=Architects Daughter;" parent="8Rd9n1IpjqdqJiG8g8nQ-119" vertex="1">
          <mxGeometry x="-930" y="1320" width="190" height="40" as="geometry" />
        </mxCell>
        <mxCell id="8Rd9n1IpjqdqJiG8g8nQ-195" value="4*200+4*offsetX" style="text;html=1;align=center;verticalAlign=middle;resizable=0;points=[];autosize=1;strokeColor=#d79b00;fillColor=#ffe6cc;fontSize=20;fontFamily=Architects Daughter;" parent="8Rd9n1IpjqdqJiG8g8nQ-119" vertex="1">
          <mxGeometry x="-700" y="1241" width="190" height="40" as="geometry" />
        </mxCell>
        <mxCell id="8Rd9n1IpjqdqJiG8g8nQ-199" value="5" style="text;html=1;align=center;verticalAlign=middle;resizable=0;points=[];autosize=1;strokeColor=#6c8ebf;fillColor=#dae8fc;fontSize=20;fontFamily=Architects Daughter;" parent="8Rd9n1IpjqdqJiG8g8nQ-119" vertex="1">
          <mxGeometry x="-1150" y="1570" width="40" height="40" as="geometry" />
        </mxCell>
        <mxCell id="8Rd9n1IpjqdqJiG8g8nQ-200" value="6" style="text;html=1;align=center;verticalAlign=middle;resizable=0;points=[];autosize=1;strokeColor=#6c8ebf;fillColor=#dae8fc;fontSize=20;fontFamily=Architects Daughter;" parent="8Rd9n1IpjqdqJiG8g8nQ-119" vertex="1">
          <mxGeometry x="-880" y="1570" width="40" height="40" as="geometry" />
        </mxCell>
        <mxCell id="8Rd9n1IpjqdqJiG8g8nQ-201" value="7" style="text;html=1;align=center;verticalAlign=middle;resizable=0;points=[];autosize=1;strokeColor=#6c8ebf;fillColor=#dae8fc;fontSize=20;fontFamily=Architects Daughter;" parent="8Rd9n1IpjqdqJiG8g8nQ-119" vertex="1">
          <mxGeometry x="-730" y="1570" width="40" height="40" as="geometry" />
        </mxCell>
        <mxCell id="8Rd9n1IpjqdqJiG8g8nQ-202" value="8" style="text;html=1;align=center;verticalAlign=middle;resizable=0;points=[];autosize=1;strokeColor=#6c8ebf;fillColor=#dae8fc;fontSize=20;fontFamily=Architects Daughter;" parent="8Rd9n1IpjqdqJiG8g8nQ-119" vertex="1">
          <mxGeometry x="-455" y="1570" width="40" height="40" as="geometry" />
        </mxCell>
        <mxCell id="8Rd9n1IpjqdqJiG8g8nQ-203" value="9" style="text;html=1;align=center;verticalAlign=middle;resizable=0;points=[];autosize=1;strokeColor=#6c8ebf;fillColor=#dae8fc;fontSize=20;fontFamily=Architects Daughter;" parent="8Rd9n1IpjqdqJiG8g8nQ-119" vertex="1">
          <mxGeometry x="-255" y="1570" width="30" height="40" as="geometry" />
        </mxCell>
        <mxCell id="8Rd9n1IpjqdqJiG8g8nQ-204" value="200" style="rounded=1;whiteSpace=wrap;html=1;sketch=1;hachureGap=4;jiggle=2;curveFitting=1;fontFamily=Architects Daughter;fontSource=https%3A%2F%2Ffonts.googleapis.com%2Fcss%3Ffamily%3DArchitects%2BDaughter;fontSize=20;" parent="8Rd9n1IpjqdqJiG8g8nQ-119" vertex="1">
          <mxGeometry x="-220" y="1720" width="120" height="60" as="geometry" />
        </mxCell>
        <mxCell id="8Rd9n1IpjqdqJiG8g8nQ-206" value="0" style="text;html=1;align=center;verticalAlign=middle;resizable=0;points=[];autosize=1;strokeColor=#b85450;fillColor=#f8cecc;fontSize=20;fontFamily=Architects Daughter;" parent="8Rd9n1IpjqdqJiG8g8nQ-119" vertex="1">
          <mxGeometry x="-1230" y="1460" width="40" height="40" as="geometry" />
        </mxCell>
        <mxCell id="8Rd9n1IpjqdqJiG8g8nQ-207" value="1" style="text;html=1;align=center;verticalAlign=middle;resizable=0;points=[];autosize=1;strokeColor=#b85450;fillColor=#f8cecc;fontSize=20;fontFamily=Architects Daughter;" parent="8Rd9n1IpjqdqJiG8g8nQ-119" vertex="1">
          <mxGeometry x="-1235" y="1570" width="30" height="40" as="geometry" />
        </mxCell>
        <mxCell id="8Rd9n1IpjqdqJiG8g8nQ-208" value="2" style="text;html=1;align=center;verticalAlign=middle;resizable=0;points=[];autosize=1;strokeColor=#b85450;fillColor=#f8cecc;fontSize=20;fontFamily=Architects Daughter;" parent="8Rd9n1IpjqdqJiG8g8nQ-119" vertex="1">
          <mxGeometry x="-1235" y="1730" width="30" height="40" as="geometry" />
        </mxCell>
        <mxCell id="8Rd9n1IpjqdqJiG8g8nQ-210" style="edgeStyle=orthogonalEdgeStyle;rounded=0;sketch=1;hachureGap=4;jiggle=2;curveFitting=1;orthogonalLoop=1;jettySize=auto;html=1;fontFamily=Architects Daughter;fontSource=https%3A%2F%2Ffonts.googleapis.com%2Fcss%3Ffamily%3DArchitects%2BDaughter;fontSize=16;" parent="8Rd9n1IpjqdqJiG8g8nQ-119" source="8Rd9n1IpjqdqJiG8g8nQ-209" edge="1">
          <mxGeometry relative="1" as="geometry">
            <mxPoint x="-920.0000000000005" y="1480" as="targetPoint" />
          </mxGeometry>
        </mxCell>
        <mxCell id="8Rd9n1IpjqdqJiG8g8nQ-209" value="200+offsetX" style="text;html=1;align=center;verticalAlign=middle;resizable=0;points=[];autosize=1;strokeColor=#d79b00;fillColor=#ffe6cc;fontSize=20;fontFamily=Architects Daughter;" parent="8Rd9n1IpjqdqJiG8g8nQ-119" vertex="1">
          <mxGeometry x="-995" y="1520" width="150" height="40" as="geometry" />
        </mxCell>
        <mxCell id="8Rd9n1IpjqdqJiG8g8nQ-212" style="edgeStyle=orthogonalEdgeStyle;rounded=0;sketch=1;hachureGap=4;jiggle=2;curveFitting=1;orthogonalLoop=1;jettySize=auto;html=1;fontFamily=Architects Daughter;fontSource=https%3A%2F%2Ffonts.googleapis.com%2Fcss%3Ffamily%3DArchitects%2BDaughter;fontSize=16;" parent="8Rd9n1IpjqdqJiG8g8nQ-119" source="8Rd9n1IpjqdqJiG8g8nQ-211" edge="1">
          <mxGeometry relative="1" as="geometry">
            <mxPoint x="-830.0000000000005" y="1634" as="targetPoint" />
          </mxGeometry>
        </mxCell>
        <mxCell id="8Rd9n1IpjqdqJiG8g8nQ-211" value="2*60+2*offsetY" style="text;html=1;align=center;verticalAlign=middle;resizable=0;points=[];autosize=1;strokeColor=#d79b00;fillColor=#ffe6cc;fontSize=20;fontFamily=Architects Daughter;" parent="8Rd9n1IpjqdqJiG8g8nQ-119" vertex="1">
          <mxGeometry x="-1075" y="1614" width="180" height="40" as="geometry" />
        </mxCell>
        <mxCell id="8Rd9n1IpjqdqJiG8g8nQ-213" value="(200*4+offsetX*4,2*60+2*offsetY,200+offsetX)" style="text;html=1;align=center;verticalAlign=middle;resizable=0;points=[];autosize=1;strokeColor=#82b366;fillColor=#d5e8d4;fontSize=20;fontFamily=Architects Daughter;" parent="8Rd9n1IpjqdqJiG8g8nQ-119" vertex="1">
          <mxGeometry x="-1085" y="1760" width="490" height="40" as="geometry" />
        </mxCell>
        <mxCell id="8Rd9n1IpjqdqJiG8g8nQ-215" value="11" style="text;html=1;align=center;verticalAlign=middle;resizable=0;points=[];autosize=1;strokeColor=#6c8ebf;fillColor=#dae8fc;fontSize=20;fontFamily=Architects Daughter;" parent="8Rd9n1IpjqdqJiG8g8nQ-119" vertex="1">
          <mxGeometry x="-880" y="1720" width="30" height="40" as="geometry" />
        </mxCell>
        <mxCell id="8Rd9n1IpjqdqJiG8g8nQ-217" style="edgeStyle=orthogonalEdgeStyle;rounded=0;sketch=1;hachureGap=4;jiggle=2;curveFitting=1;orthogonalLoop=1;jettySize=auto;html=1;fontFamily=Architects Daughter;fontSource=https%3A%2F%2Ffonts.googleapis.com%2Fcss%3Ffamily%3DArchitects%2BDaughter;fontSize=16;" parent="8Rd9n1IpjqdqJiG8g8nQ-119" source="8Rd9n1IpjqdqJiG8g8nQ-216" edge="1">
          <mxGeometry relative="1" as="geometry">
            <mxPoint x="-660" y="1890" as="targetPoint" />
          </mxGeometry>
        </mxCell>
        <mxCell id="8Rd9n1IpjqdqJiG8g8nQ-216" value="200*4+offsetX*4" style="text;html=1;align=center;verticalAlign=middle;resizable=0;points=[];autosize=1;strokeColor=#d79b00;fillColor=#ffe6cc;fontSize=20;fontFamily=Architects Daughter;" parent="8Rd9n1IpjqdqJiG8g8nQ-119" vertex="1">
          <mxGeometry x="-755" y="1950" width="190" height="40" as="geometry" />
        </mxCell>
        <mxCell id="8Rd9n1IpjqdqJiG8g8nQ-218" value="1:1" style="rounded=0;whiteSpace=wrap;html=1;sketch=1;hachureGap=4;jiggle=2;curveFitting=1;fontFamily=Architects Daughter;fontSource=https%3A%2F%2Ffonts.googleapis.com%2Fcss%3Ffamily%3DArchitects%2BDaughter;fontSize=20;" parent="8Rd9n1IpjqdqJiG8g8nQ-119" vertex="1">
          <mxGeometry x="-2040" y="1340" width="120" height="60" as="geometry" />
        </mxCell>
        <mxCell id="8Rd9n1IpjqdqJiG8g8nQ-231" style="edgeStyle=orthogonalEdgeStyle;rounded=0;sketch=1;hachureGap=4;jiggle=2;curveFitting=1;orthogonalLoop=1;jettySize=auto;html=1;entryX=1;entryY=0.5;entryDx=0;entryDy=0;fontFamily=Architects Daughter;fontSource=https%3A%2F%2Ffonts.googleapis.com%2Fcss%3Ffamily%3DArchitects%2BDaughter;fontSize=16;" parent="8Rd9n1IpjqdqJiG8g8nQ-119" source="8Rd9n1IpjqdqJiG8g8nQ-220" target="8Rd9n1IpjqdqJiG8g8nQ-218" edge="1">
          <mxGeometry relative="1" as="geometry" />
        </mxCell>
        <mxCell id="8Rd9n1IpjqdqJiG8g8nQ-220" value="1:3" style="rounded=0;whiteSpace=wrap;html=1;sketch=1;hachureGap=4;jiggle=2;curveFitting=1;fontFamily=Architects Daughter;fontSource=https%3A%2F%2Ffonts.googleapis.com%2Fcss%3Ffamily%3DArchitects%2BDaughter;fontSize=20;" parent="8Rd9n1IpjqdqJiG8g8nQ-119" vertex="1">
          <mxGeometry x="-1740" y="1340" width="120" height="60" as="geometry" />
        </mxCell>
        <mxCell id="8Rd9n1IpjqdqJiG8g8nQ-234" style="edgeStyle=orthogonalEdgeStyle;rounded=0;sketch=1;hachureGap=4;jiggle=2;curveFitting=1;orthogonalLoop=1;jettySize=auto;html=1;entryX=1;entryY=0.5;entryDx=0;entryDy=0;fontFamily=Architects Daughter;fontSource=https%3A%2F%2Ffonts.googleapis.com%2Fcss%3Ffamily%3DArchitects%2BDaughter;fontSize=16;" parent="8Rd9n1IpjqdqJiG8g8nQ-119" source="8Rd9n1IpjqdqJiG8g8nQ-222" target="8Rd9n1IpjqdqJiG8g8nQ-220" edge="1">
          <mxGeometry relative="1" as="geometry" />
        </mxCell>
        <mxCell id="8Rd9n1IpjqdqJiG8g8nQ-222" value="1:5" style="rounded=0;whiteSpace=wrap;html=1;sketch=1;hachureGap=4;jiggle=2;curveFitting=1;fontFamily=Architects Daughter;fontSource=https%3A%2F%2Ffonts.googleapis.com%2Fcss%3Ffamily%3DArchitects%2BDaughter;fontSize=20;" parent="8Rd9n1IpjqdqJiG8g8nQ-119" vertex="1">
          <mxGeometry x="-1440" y="1340" width="120" height="60" as="geometry" />
        </mxCell>
        <mxCell id="8Rd9n1IpjqdqJiG8g8nQ-224" value="2:1" style="rounded=0;whiteSpace=wrap;html=1;sketch=1;hachureGap=4;jiggle=2;curveFitting=1;fontFamily=Architects Daughter;fontSource=https%3A%2F%2Ffonts.googleapis.com%2Fcss%3Ffamily%3DArchitects%2BDaughter;fontSize=20;" parent="8Rd9n1IpjqdqJiG8g8nQ-119" vertex="1">
          <mxGeometry x="-2040" y="1430" width="120" height="60" as="geometry" />
        </mxCell>
        <mxCell id="8Rd9n1IpjqdqJiG8g8nQ-235" style="edgeStyle=orthogonalEdgeStyle;rounded=0;sketch=1;hachureGap=4;jiggle=2;curveFitting=1;orthogonalLoop=1;jettySize=auto;html=1;fontFamily=Architects Daughter;fontSource=https%3A%2F%2Ffonts.googleapis.com%2Fcss%3Ffamily%3DArchitects%2BDaughter;fontSize=16;" parent="8Rd9n1IpjqdqJiG8g8nQ-119" source="8Rd9n1IpjqdqJiG8g8nQ-226" edge="1">
          <mxGeometry relative="1" as="geometry">
            <mxPoint x="-1920" y="1370" as="targetPoint" />
            <Array as="points">
              <mxPoint x="-1840" y="1450" />
              <mxPoint x="-1840" y="1370" />
            </Array>
          </mxGeometry>
        </mxCell>
        <mxCell id="8Rd9n1IpjqdqJiG8g8nQ-226" value="2:3" style="rounded=0;whiteSpace=wrap;html=1;sketch=1;hachureGap=4;jiggle=2;curveFitting=1;fontFamily=Architects Daughter;fontSource=https%3A%2F%2Ffonts.googleapis.com%2Fcss%3Ffamily%3DArchitects%2BDaughter;fontSize=20;" parent="8Rd9n1IpjqdqJiG8g8nQ-119" vertex="1">
          <mxGeometry x="-1740" y="1420" width="120" height="60" as="geometry" />
        </mxCell>
        <mxCell id="8Rd9n1IpjqdqJiG8g8nQ-236" style="edgeStyle=orthogonalEdgeStyle;rounded=0;sketch=1;hachureGap=4;jiggle=2;curveFitting=1;orthogonalLoop=1;jettySize=auto;html=1;entryX=1;entryY=0.5;entryDx=0;entryDy=0;fontFamily=Architects Daughter;fontSource=https%3A%2F%2Ffonts.googleapis.com%2Fcss%3Ffamily%3DArchitects%2BDaughter;fontSize=16;" parent="8Rd9n1IpjqdqJiG8g8nQ-119" source="8Rd9n1IpjqdqJiG8g8nQ-228" target="8Rd9n1IpjqdqJiG8g8nQ-226" edge="1">
          <mxGeometry relative="1" as="geometry" />
        </mxCell>
        <mxCell id="8Rd9n1IpjqdqJiG8g8nQ-228" value="2:5" style="rounded=0;whiteSpace=wrap;html=1;sketch=1;hachureGap=4;jiggle=2;curveFitting=1;fontFamily=Architects Daughter;fontSource=https%3A%2F%2Ffonts.googleapis.com%2Fcss%3Ffamily%3DArchitects%2BDaughter;fontSize=20;" parent="8Rd9n1IpjqdqJiG8g8nQ-119" vertex="1">
          <mxGeometry x="-1440" y="1420" width="120" height="60" as="geometry" />
        </mxCell>
        <mxCell id="8Rd9n1IpjqdqJiG8g8nQ-229" value="1011002" style="text;html=1;align=center;verticalAlign=middle;resizable=0;points=[];autosize=1;strokeColor=#6c8ebf;fillColor=#dae8fc;fontSize=20;fontFamily=Architects Daughter;" parent="8Rd9n1IpjqdqJiG8g8nQ-119" vertex="1">
          <mxGeometry x="-1720" y="1300" width="80" height="40" as="geometry" />
        </mxCell>
        <mxCell id="8Rd9n1IpjqdqJiG8g8nQ-230" value="1011003" style="text;html=1;align=center;verticalAlign=middle;resizable=0;points=[];autosize=1;strokeColor=#6c8ebf;fillColor=#dae8fc;fontSize=20;fontFamily=Architects Daughter;" parent="8Rd9n1IpjqdqJiG8g8nQ-119" vertex="1">
          <mxGeometry x="-1720" y="1480" width="80" height="40" as="geometry" />
        </mxCell>
        <mxCell id="8Rd9n1IpjqdqJiG8g8nQ-232" value="1011004" style="text;html=1;align=center;verticalAlign=middle;resizable=0;points=[];autosize=1;strokeColor=#6c8ebf;fillColor=#dae8fc;fontSize=20;fontFamily=Architects Daughter;" parent="8Rd9n1IpjqdqJiG8g8nQ-119" vertex="1">
          <mxGeometry x="-1420" y="1300" width="80" height="40" as="geometry" />
        </mxCell>
        <mxCell id="8Rd9n1IpjqdqJiG8g8nQ-233" value="1011005" style="text;html=1;align=center;verticalAlign=middle;resizable=0;points=[];autosize=1;strokeColor=#6c8ebf;fillColor=#dae8fc;fontSize=20;fontFamily=Architects Daughter;" parent="8Rd9n1IpjqdqJiG8g8nQ-119" vertex="1">
          <mxGeometry x="-1420" y="1480" width="80" height="40" as="geometry" />
        </mxCell>
        <mxCell id="8Rd9n1IpjqdqJiG8g8nQ-237" value="" style="rounded=0;whiteSpace=wrap;html=1;sketch=1;hachureGap=4;jiggle=2;curveFitting=1;fontFamily=Architects Daughter;fontSource=https%3A%2F%2Ffonts.googleapis.com%2Fcss%3Ffamily%3DArchitects%2BDaughter;fontSize=20;" parent="8Rd9n1IpjqdqJiG8g8nQ-119" vertex="1">
          <mxGeometry x="-2628" y="1580" width="200" height="20" as="geometry" />
        </mxCell>
        <mxCell id="8Rd9n1IpjqdqJiG8g8nQ-238" value="" style="rounded=0;whiteSpace=wrap;html=1;sketch=1;hachureGap=4;jiggle=2;curveFitting=1;fontFamily=Architects Daughter;fontSource=https%3A%2F%2Ffonts.googleapis.com%2Fcss%3Ffamily%3DArchitects%2BDaughter;fontSize=20;" parent="8Rd9n1IpjqdqJiG8g8nQ-119" vertex="1">
          <mxGeometry x="-2448" y="1580" width="20" height="200" as="geometry" />
        </mxCell>
        <mxCell id="8Rd9n1IpjqdqJiG8g8nQ-243" value="" style="rounded=0;whiteSpace=wrap;html=1;sketch=1;hachureGap=4;jiggle=2;curveFitting=1;fontFamily=Architects Daughter;fontSource=https%3A%2F%2Ffonts.googleapis.com%2Fcss%3Ffamily%3DArchitects%2BDaughter;fontSize=20;" parent="8Rd9n1IpjqdqJiG8g8nQ-119" vertex="1">
          <mxGeometry x="-2448" y="1760" width="200" height="20" as="geometry" />
        </mxCell>
        <mxCell id="8Rd9n1IpjqdqJiG8g8nQ-248" style="edgeStyle=orthogonalEdgeStyle;rounded=0;sketch=1;hachureGap=4;jiggle=2;curveFitting=1;orthogonalLoop=1;jettySize=auto;html=1;entryX=0;entryY=0.5;entryDx=0;entryDy=0;fontFamily=Architects Daughter;fontSource=https%3A%2F%2Ffonts.googleapis.com%2Fcss%3Ffamily%3DArchitects%2BDaughter;fontSize=16;" parent="8Rd9n1IpjqdqJiG8g8nQ-119" source="8Rd9n1IpjqdqJiG8g8nQ-240" target="8Rd9n1IpjqdqJiG8g8nQ-241" edge="1">
          <mxGeometry relative="1" as="geometry" />
        </mxCell>
        <mxCell id="8Rd9n1IpjqdqJiG8g8nQ-240" value="A" style="ellipse;whiteSpace=wrap;html=1;aspect=fixed;sketch=1;hachureGap=4;jiggle=2;curveFitting=1;fontFamily=Architects Daughter;fontSource=https%3A%2F%2Ffonts.googleapis.com%2Fcss%3Ffamily%3DArchitects%2BDaughter;fontSize=20;fillColor=#dae8fc;strokeColor=#6c8ebf;" parent="8Rd9n1IpjqdqJiG8g8nQ-119" vertex="1">
          <mxGeometry x="-2628" y="1580" width="20" height="20" as="geometry" />
        </mxCell>
        <mxCell id="8Rd9n1IpjqdqJiG8g8nQ-249" style="edgeStyle=orthogonalEdgeStyle;rounded=0;sketch=1;hachureGap=4;jiggle=2;curveFitting=1;orthogonalLoop=1;jettySize=auto;html=1;fontFamily=Architects Daughter;fontSource=https%3A%2F%2Ffonts.googleapis.com%2Fcss%3Ffamily%3DArchitects%2BDaughter;fontSize=16;" parent="8Rd9n1IpjqdqJiG8g8nQ-119" source="8Rd9n1IpjqdqJiG8g8nQ-241" target="8Rd9n1IpjqdqJiG8g8nQ-242" edge="1">
          <mxGeometry relative="1" as="geometry" />
        </mxCell>
        <mxCell id="8Rd9n1IpjqdqJiG8g8nQ-241" value="B" style="ellipse;whiteSpace=wrap;html=1;aspect=fixed;sketch=1;hachureGap=4;jiggle=2;curveFitting=1;fontFamily=Architects Daughter;fontSource=https%3A%2F%2Ffonts.googleapis.com%2Fcss%3Ffamily%3DArchitects%2BDaughter;fontSize=20;fillColor=#dae8fc;strokeColor=#6c8ebf;" parent="8Rd9n1IpjqdqJiG8g8nQ-119" vertex="1">
          <mxGeometry x="-2448" y="1580" width="20" height="20" as="geometry" />
        </mxCell>
        <mxCell id="8Rd9n1IpjqdqJiG8g8nQ-251" style="edgeStyle=orthogonalEdgeStyle;rounded=0;sketch=1;hachureGap=4;jiggle=2;curveFitting=1;orthogonalLoop=1;jettySize=auto;html=1;entryX=0;entryY=0.5;entryDx=0;entryDy=0;fontFamily=Architects Daughter;fontSource=https%3A%2F%2Ffonts.googleapis.com%2Fcss%3Ffamily%3DArchitects%2BDaughter;fontSize=16;" parent="8Rd9n1IpjqdqJiG8g8nQ-119" source="8Rd9n1IpjqdqJiG8g8nQ-242" target="8Rd9n1IpjqdqJiG8g8nQ-245" edge="1">
          <mxGeometry relative="1" as="geometry" />
        </mxCell>
        <mxCell id="8Rd9n1IpjqdqJiG8g8nQ-242" value="C" style="ellipse;whiteSpace=wrap;html=1;aspect=fixed;sketch=1;hachureGap=4;jiggle=2;curveFitting=1;fontFamily=Architects Daughter;fontSource=https%3A%2F%2Ffonts.googleapis.com%2Fcss%3Ffamily%3DArchitects%2BDaughter;fontSize=20;fillColor=#dae8fc;strokeColor=#6c8ebf;" parent="8Rd9n1IpjqdqJiG8g8nQ-119" vertex="1">
          <mxGeometry x="-2448" y="1760" width="20" height="20" as="geometry" />
        </mxCell>
        <mxCell id="8Rd9n1IpjqdqJiG8g8nQ-245" value="D" style="ellipse;whiteSpace=wrap;html=1;aspect=fixed;sketch=1;hachureGap=4;jiggle=2;curveFitting=1;fontFamily=Architects Daughter;fontSource=https%3A%2F%2Ffonts.googleapis.com%2Fcss%3Ffamily%3DArchitects%2BDaughter;fontSize=20;fillColor=#dae8fc;strokeColor=#6c8ebf;" parent="8Rd9n1IpjqdqJiG8g8nQ-119" vertex="1">
          <mxGeometry x="-2268" y="1760" width="20" height="20" as="geometry" />
        </mxCell>
        <mxCell id="8Rd9n1IpjqdqJiG8g8nQ-252" value="A&amp;nbsp; &amp;nbsp;1,0" style="text;html=1;align=center;verticalAlign=middle;resizable=0;points=[];autosize=1;strokeColor=#82b366;fillColor=#d5e8d4;fontSize=20;fontFamily=Architects Daughter;" parent="8Rd9n1IpjqdqJiG8g8nQ-119" vertex="1">
          <mxGeometry x="-2650" y="1430" width="80" height="40" as="geometry" />
        </mxCell>
        <mxCell id="8Rd9n1IpjqdqJiG8g8nQ-253" value="A1&amp;nbsp; &amp;nbsp;1,10" style="text;html=1;align=center;verticalAlign=middle;resizable=0;points=[];autosize=1;strokeColor=#82b366;fillColor=#d5e8d4;fontSize=20;fontFamily=Architects Daughter;" parent="8Rd9n1IpjqdqJiG8g8nQ-119" vertex="1">
          <mxGeometry x="-2650" y="1470" width="80" height="40" as="geometry" />
        </mxCell>
        <mxCell id="8Rd9n1IpjqdqJiG8g8nQ-254" value="A2&amp;nbsp; &amp;nbsp;1,-10" style="text;html=1;align=center;verticalAlign=middle;resizable=0;points=[];autosize=1;strokeColor=#82b366;fillColor=#d5e8d4;fontSize=20;fontFamily=Architects Daughter;" parent="8Rd9n1IpjqdqJiG8g8nQ-119" vertex="1">
          <mxGeometry x="-2660" y="1510" width="100" height="40" as="geometry" />
        </mxCell>
        <mxCell id="8Rd9n1IpjqdqJiG8g8nQ-255" value="B&amp;nbsp; &amp;nbsp;200,0" style="text;html=1;align=center;verticalAlign=middle;resizable=0;points=[];autosize=1;strokeColor=#82b366;fillColor=#d5e8d4;fontSize=20;fontFamily=Architects Daughter;" parent="8Rd9n1IpjqdqJiG8g8nQ-119" vertex="1">
          <mxGeometry x="-2485" y="1430" width="110" height="40" as="geometry" />
        </mxCell>
        <mxCell id="8Rd9n1IpjqdqJiG8g8nQ-256" value="B1&amp;nbsp; &amp;nbsp;200,10" style="text;html=1;align=center;verticalAlign=middle;resizable=0;points=[];autosize=1;strokeColor=#82b366;fillColor=#d5e8d4;fontSize=20;fontFamily=Architects Daughter;" parent="8Rd9n1IpjqdqJiG8g8nQ-119" vertex="1">
          <mxGeometry x="-2490" y="1470" width="120" height="40" as="geometry" />
        </mxCell>
        <mxCell id="8Rd9n1IpjqdqJiG8g8nQ-257" value="B2&amp;nbsp; &amp;nbsp;190,-10" style="text;html=1;align=center;verticalAlign=middle;resizable=0;points=[];autosize=1;strokeColor=#82b366;fillColor=#d5e8d4;fontSize=20;fontFamily=Architects Daughter;" parent="8Rd9n1IpjqdqJiG8g8nQ-119" vertex="1">
          <mxGeometry x="-2490" y="1510" width="120" height="40" as="geometry" />
        </mxCell>
        <mxCell id="8Rd9n1IpjqdqJiG8g8nQ-258" value="C&amp;nbsp; &amp;nbsp;200,-200" style="text;html=1;align=center;verticalAlign=middle;resizable=0;points=[];autosize=1;strokeColor=#82b366;fillColor=#d5e8d4;fontSize=20;fontFamily=Architects Daughter;" parent="8Rd9n1IpjqdqJiG8g8nQ-119" vertex="1">
          <mxGeometry x="-2625" y="1710" width="140" height="40" as="geometry" />
        </mxCell>
        <mxCell id="8Rd9n1IpjqdqJiG8g8nQ-259" value="C1&amp;nbsp; &amp;nbsp;200,-190" style="text;html=1;align=center;verticalAlign=middle;resizable=0;points=[];autosize=1;strokeColor=#82b366;fillColor=#d5e8d4;fontSize=20;fontFamily=Architects Daughter;" parent="8Rd9n1IpjqdqJiG8g8nQ-119" vertex="1">
          <mxGeometry x="-2625" y="1750" width="140" height="40" as="geometry" />
        </mxCell>
        <mxCell id="8Rd9n1IpjqdqJiG8g8nQ-260" value="C2&amp;nbsp; &amp;nbsp;200,-210" style="text;html=1;align=center;verticalAlign=middle;resizable=0;points=[];autosize=1;strokeColor=#82b366;fillColor=#d5e8d4;fontSize=20;fontFamily=Architects Daughter;" parent="8Rd9n1IpjqdqJiG8g8nQ-119" vertex="1">
          <mxGeometry x="-2630" y="1790" width="150" height="40" as="geometry" />
        </mxCell>
        <mxCell id="8Rd9n1IpjqdqJiG8g8nQ-266" value="D&amp;nbsp; &amp;nbsp;400,-200" style="text;html=1;align=center;verticalAlign=middle;resizable=0;points=[];autosize=1;strokeColor=#82b366;fillColor=#d5e8d4;fontSize=20;fontFamily=Architects Daughter;" parent="8Rd9n1IpjqdqJiG8g8nQ-119" vertex="1">
          <mxGeometry x="-2240" y="1710" width="150" height="40" as="geometry" />
        </mxCell>
        <mxCell id="8Rd9n1IpjqdqJiG8g8nQ-267" value="D1&amp;nbsp; &amp;nbsp;400,-190" style="text;html=1;align=center;verticalAlign=middle;resizable=0;points=[];autosize=1;strokeColor=#82b366;fillColor=#d5e8d4;fontSize=20;fontFamily=Architects Daughter;" parent="8Rd9n1IpjqdqJiG8g8nQ-119" vertex="1">
          <mxGeometry x="-2235" y="1750" width="140" height="40" as="geometry" />
        </mxCell>
        <mxCell id="8Rd9n1IpjqdqJiG8g8nQ-268" value="D2&amp;nbsp; &amp;nbsp;400,-210" style="text;html=1;align=center;verticalAlign=middle;resizable=0;points=[];autosize=1;strokeColor=#82b366;fillColor=#d5e8d4;fontSize=20;fontFamily=Architects Daughter;" parent="8Rd9n1IpjqdqJiG8g8nQ-119" vertex="1">
          <mxGeometry x="-2240" y="1790" width="150" height="40" as="geometry" />
        </mxCell>
        <mxCell id="8Rd9n1IpjqdqJiG8g8nQ-281" style="edgeStyle=orthogonalEdgeStyle;rounded=0;sketch=1;hachureGap=4;jiggle=2;curveFitting=1;orthogonalLoop=1;jettySize=auto;html=1;fontFamily=Architects Daughter;fontSource=https%3A%2F%2Ffonts.googleapis.com%2Fcss%3Ffamily%3DArchitects%2BDaughter;fontSize=16;" parent="8Rd9n1IpjqdqJiG8g8nQ-119" source="8Rd9n1IpjqdqJiG8g8nQ-269" target="8Rd9n1IpjqdqJiG8g8nQ-274" edge="1">
          <mxGeometry relative="1" as="geometry" />
        </mxCell>
        <mxCell id="8Rd9n1IpjqdqJiG8g8nQ-269" value="A1&amp;nbsp; &amp;nbsp;1,10" style="text;html=1;align=center;verticalAlign=middle;resizable=0;points=[];autosize=1;strokeColor=#82b366;fillColor=#d5e8d4;fontSize=20;fontFamily=Architects Daughter;" parent="8Rd9n1IpjqdqJiG8g8nQ-119" vertex="1">
          <mxGeometry x="-3410" y="1330" width="80" height="40" as="geometry" />
        </mxCell>
        <mxCell id="8Rd9n1IpjqdqJiG8g8nQ-282" style="edgeStyle=orthogonalEdgeStyle;rounded=0;sketch=1;hachureGap=4;jiggle=2;curveFitting=1;orthogonalLoop=1;jettySize=auto;html=1;fontFamily=Architects Daughter;fontSource=https%3A%2F%2Ffonts.googleapis.com%2Fcss%3Ffamily%3DArchitects%2BDaughter;fontSize=16;" parent="8Rd9n1IpjqdqJiG8g8nQ-119" source="8Rd9n1IpjqdqJiG8g8nQ-274" target="8Rd9n1IpjqdqJiG8g8nQ-275" edge="1">
          <mxGeometry relative="1" as="geometry" />
        </mxCell>
        <mxCell id="8Rd9n1IpjqdqJiG8g8nQ-274" value="B1&amp;nbsp; &amp;nbsp;200,10" style="text;html=1;align=center;verticalAlign=middle;resizable=0;points=[];autosize=1;strokeColor=#82b366;fillColor=#d5e8d4;fontSize=20;fontFamily=Architects Daughter;" parent="8Rd9n1IpjqdqJiG8g8nQ-119" vertex="1">
          <mxGeometry x="-3080" y="1330" width="120" height="40" as="geometry" />
        </mxCell>
        <mxCell id="8Rd9n1IpjqdqJiG8g8nQ-283" style="edgeStyle=orthogonalEdgeStyle;rounded=0;sketch=1;hachureGap=4;jiggle=2;curveFitting=1;orthogonalLoop=1;jettySize=auto;html=1;fontFamily=Architects Daughter;fontSource=https%3A%2F%2Ffonts.googleapis.com%2Fcss%3Ffamily%3DArchitects%2BDaughter;fontSize=16;" parent="8Rd9n1IpjqdqJiG8g8nQ-119" source="8Rd9n1IpjqdqJiG8g8nQ-275" target="8Rd9n1IpjqdqJiG8g8nQ-276" edge="1">
          <mxGeometry relative="1" as="geometry" />
        </mxCell>
        <mxCell id="8Rd9n1IpjqdqJiG8g8nQ-275" value="C1&amp;nbsp; &amp;nbsp;200,-190" style="text;html=1;align=center;verticalAlign=middle;resizable=0;points=[];autosize=1;strokeColor=#82b366;fillColor=#d5e8d4;fontSize=20;fontFamily=Architects Daughter;" parent="8Rd9n1IpjqdqJiG8g8nQ-119" vertex="1">
          <mxGeometry x="-3090" y="1614" width="140" height="40" as="geometry" />
        </mxCell>
        <mxCell id="8Rd9n1IpjqdqJiG8g8nQ-284" style="edgeStyle=orthogonalEdgeStyle;rounded=0;sketch=1;hachureGap=4;jiggle=2;curveFitting=1;orthogonalLoop=1;jettySize=auto;html=1;fontFamily=Architects Daughter;fontSource=https%3A%2F%2Ffonts.googleapis.com%2Fcss%3Ffamily%3DArchitects%2BDaughter;fontSize=16;" parent="8Rd9n1IpjqdqJiG8g8nQ-119" source="8Rd9n1IpjqdqJiG8g8nQ-276" target="8Rd9n1IpjqdqJiG8g8nQ-277" edge="1">
          <mxGeometry relative="1" as="geometry" />
        </mxCell>
        <mxCell id="8Rd9n1IpjqdqJiG8g8nQ-276" value="D1&amp;nbsp; &amp;nbsp;400,-190" style="text;html=1;align=center;verticalAlign=middle;resizable=0;points=[];autosize=1;strokeColor=#82b366;fillColor=#d5e8d4;fontSize=20;fontFamily=Architects Daughter;" parent="8Rd9n1IpjqdqJiG8g8nQ-119" vertex="1">
          <mxGeometry x="-2855" y="1614" width="140" height="40" as="geometry" />
        </mxCell>
        <mxCell id="8Rd9n1IpjqdqJiG8g8nQ-285" style="edgeStyle=orthogonalEdgeStyle;rounded=0;sketch=1;hachureGap=4;jiggle=2;curveFitting=1;orthogonalLoop=1;jettySize=auto;html=1;entryX=1.033;entryY=0.5;entryDx=0;entryDy=0;entryPerimeter=0;fontFamily=Architects Daughter;fontSource=https%3A%2F%2Ffonts.googleapis.com%2Fcss%3Ffamily%3DArchitects%2BDaughter;fontSize=16;" parent="8Rd9n1IpjqdqJiG8g8nQ-119" source="8Rd9n1IpjqdqJiG8g8nQ-277" target="8Rd9n1IpjqdqJiG8g8nQ-278" edge="1">
          <mxGeometry relative="1" as="geometry" />
        </mxCell>
        <mxCell id="8Rd9n1IpjqdqJiG8g8nQ-277" value="D2&amp;nbsp; &amp;nbsp;400,-210" style="text;html=1;align=center;verticalAlign=middle;resizable=0;points=[];autosize=1;strokeColor=#82b366;fillColor=#d5e8d4;fontSize=20;fontFamily=Architects Daughter;" parent="8Rd9n1IpjqdqJiG8g8nQ-119" vertex="1">
          <mxGeometry x="-2860" y="1710" width="150" height="40" as="geometry" />
        </mxCell>
        <mxCell id="8Rd9n1IpjqdqJiG8g8nQ-286" style="edgeStyle=orthogonalEdgeStyle;rounded=0;sketch=1;hachureGap=4;jiggle=2;curveFitting=1;orthogonalLoop=1;jettySize=auto;html=1;fontFamily=Architects Daughter;fontSource=https%3A%2F%2Ffonts.googleapis.com%2Fcss%3Ffamily%3DArchitects%2BDaughter;fontSize=16;" parent="8Rd9n1IpjqdqJiG8g8nQ-119" source="8Rd9n1IpjqdqJiG8g8nQ-278" target="8Rd9n1IpjqdqJiG8g8nQ-279" edge="1">
          <mxGeometry relative="1" as="geometry" />
        </mxCell>
        <mxCell id="8Rd9n1IpjqdqJiG8g8nQ-278" value="C2&amp;nbsp; 190,-210" style="text;html=1;align=center;verticalAlign=middle;resizable=0;points=[];autosize=1;strokeColor=#82b366;fillColor=#d5e8d4;fontSize=20;fontFamily=Architects Daughter;" parent="8Rd9n1IpjqdqJiG8g8nQ-119" vertex="1">
          <mxGeometry x="-3245" y="1710" width="130" height="40" as="geometry" />
        </mxCell>
        <mxCell id="8Rd9n1IpjqdqJiG8g8nQ-287" style="edgeStyle=orthogonalEdgeStyle;rounded=0;sketch=1;hachureGap=4;jiggle=2;curveFitting=1;orthogonalLoop=1;jettySize=auto;html=1;fontFamily=Architects Daughter;fontSource=https%3A%2F%2Ffonts.googleapis.com%2Fcss%3Ffamily%3DArchitects%2BDaughter;fontSize=16;" parent="8Rd9n1IpjqdqJiG8g8nQ-119" source="8Rd9n1IpjqdqJiG8g8nQ-279" target="8Rd9n1IpjqdqJiG8g8nQ-280" edge="1">
          <mxGeometry relative="1" as="geometry" />
        </mxCell>
        <mxCell id="8Rd9n1IpjqdqJiG8g8nQ-279" value="B2&amp;nbsp; &amp;nbsp;190,-10" style="text;html=1;align=center;verticalAlign=middle;resizable=0;points=[];autosize=1;strokeColor=#82b366;fillColor=#d5e8d4;fontSize=20;fontFamily=Architects Daughter;" parent="8Rd9n1IpjqdqJiG8g8nQ-119" vertex="1">
          <mxGeometry x="-3240" y="1400" width="120" height="40" as="geometry" />
        </mxCell>
        <mxCell id="8Rd9n1IpjqdqJiG8g8nQ-288" style="edgeStyle=orthogonalEdgeStyle;rounded=0;sketch=1;hachureGap=4;jiggle=2;curveFitting=1;orthogonalLoop=1;jettySize=auto;html=1;fontFamily=Architects Daughter;fontSource=https%3A%2F%2Ffonts.googleapis.com%2Fcss%3Ffamily%3DArchitects%2BDaughter;fontSize=16;" parent="8Rd9n1IpjqdqJiG8g8nQ-119" source="8Rd9n1IpjqdqJiG8g8nQ-280" target="8Rd9n1IpjqdqJiG8g8nQ-269" edge="1">
          <mxGeometry relative="1" as="geometry" />
        </mxCell>
        <mxCell id="8Rd9n1IpjqdqJiG8g8nQ-280" value="A2&amp;nbsp; &amp;nbsp;1,-10" style="text;html=1;align=center;verticalAlign=middle;resizable=0;points=[];autosize=1;strokeColor=#82b366;fillColor=#d5e8d4;fontSize=20;fontFamily=Architects Daughter;" parent="8Rd9n1IpjqdqJiG8g8nQ-119" vertex="1">
          <mxGeometry x="-3420" y="1400" width="100" height="40" as="geometry" />
        </mxCell>
        <mxCell id="8Rd9n1IpjqdqJiG8g8nQ-290" value="B1&amp;nbsp; &amp;nbsp;200,-10" style="text;html=1;align=center;verticalAlign=middle;resizable=0;points=[];autosize=1;strokeColor=#82b366;fillColor=#d5e8d4;fontSize=20;fontFamily=Architects Daughter;" parent="8Rd9n1IpjqdqJiG8g8nQ-119" vertex="1">
          <mxGeometry x="-3085" y="1410" width="130" height="40" as="geometry" />
        </mxCell>
        <mxCell id="8Rd9n1IpjqdqJiG8g8nQ-291" value="B2&amp;nbsp; &amp;nbsp;190,-190" style="text;html=1;align=center;verticalAlign=middle;resizable=0;points=[];autosize=1;strokeColor=#82b366;fillColor=#d5e8d4;fontSize=20;fontFamily=Architects Daughter;" parent="8Rd9n1IpjqdqJiG8g8nQ-119" vertex="1">
          <mxGeometry x="-3265" y="1630" width="140" height="40" as="geometry" />
        </mxCell>
        <mxCell id="8Rd9n1IpjqdqJiG8g8nQ-293" value="9&lt;br&gt;" style="text;html=1;align=center;verticalAlign=middle;resizable=0;points=[];autosize=1;strokeColor=#b85450;fillColor=#f8cecc;fontSize=20;fontFamily=Architects Daughter;" parent="8Rd9n1IpjqdqJiG8g8nQ-119" vertex="1">
          <mxGeometry x="-3460" y="1400" width="30" height="40" as="geometry" />
        </mxCell>
        <mxCell id="8Rd9n1IpjqdqJiG8g8nQ-294" value="0" style="text;html=1;align=center;verticalAlign=middle;resizable=0;points=[];autosize=1;strokeColor=#b85450;fillColor=#f8cecc;fontSize=20;fontFamily=Architects Daughter;" parent="8Rd9n1IpjqdqJiG8g8nQ-119" vertex="1">
          <mxGeometry x="-3465" y="1330" width="40" height="40" as="geometry" />
        </mxCell>
        <mxCell id="8Rd9n1IpjqdqJiG8g8nQ-295" value="1" style="text;html=1;align=center;verticalAlign=middle;resizable=0;points=[];autosize=1;strokeColor=#b85450;fillColor=#f8cecc;fontSize=20;fontFamily=Architects Daughter;" parent="8Rd9n1IpjqdqJiG8g8nQ-119" vertex="1">
          <mxGeometry x="-2960" y="1330" width="30" height="40" as="geometry" />
        </mxCell>
        <mxCell id="8Rd9n1IpjqdqJiG8g8nQ-296" value="2" style="text;html=1;align=center;verticalAlign=middle;resizable=0;points=[];autosize=1;strokeColor=#b85450;fillColor=#f8cecc;fontSize=20;fontFamily=Architects Daughter;" parent="8Rd9n1IpjqdqJiG8g8nQ-119" vertex="1">
          <mxGeometry x="-2955" y="1410" width="30" height="40" as="geometry" />
        </mxCell>
        <mxCell id="8Rd9n1IpjqdqJiG8g8nQ-297" value="3" style="text;html=1;align=center;verticalAlign=middle;resizable=0;points=[];autosize=1;strokeColor=#b85450;fillColor=#f8cecc;fontSize=20;fontFamily=Architects Daughter;" parent="8Rd9n1IpjqdqJiG8g8nQ-119" vertex="1">
          <mxGeometry x="-3120" y="1614" width="30" height="40" as="geometry" />
        </mxCell>
        <mxCell id="8Rd9n1IpjqdqJiG8g8nQ-298" value="4" style="text;html=1;align=center;verticalAlign=middle;resizable=0;points=[];autosize=1;strokeColor=#b85450;fillColor=#f8cecc;fontSize=20;fontFamily=Architects Daughter;" parent="8Rd9n1IpjqdqJiG8g8nQ-119" vertex="1">
          <mxGeometry x="-2720" y="1614" width="40" height="40" as="geometry" />
        </mxCell>
        <mxCell id="8Rd9n1IpjqdqJiG8g8nQ-299" value="5" style="text;html=1;align=center;verticalAlign=middle;resizable=0;points=[];autosize=1;strokeColor=#b85450;fillColor=#f8cecc;fontSize=20;fontFamily=Architects Daughter;" parent="8Rd9n1IpjqdqJiG8g8nQ-119" vertex="1">
          <mxGeometry x="-2715" y="1710" width="40" height="40" as="geometry" />
        </mxCell>
        <mxCell id="8Rd9n1IpjqdqJiG8g8nQ-300" value="6" style="text;html=1;align=center;verticalAlign=middle;resizable=0;points=[];autosize=1;strokeColor=#b85450;fillColor=#f8cecc;fontSize=20;fontFamily=Architects Daughter;" parent="8Rd9n1IpjqdqJiG8g8nQ-119" vertex="1">
          <mxGeometry x="-3280" y="1710" width="40" height="40" as="geometry" />
        </mxCell>
        <mxCell id="8Rd9n1IpjqdqJiG8g8nQ-301" value="7" style="text;html=1;align=center;verticalAlign=middle;resizable=0;points=[];autosize=1;strokeColor=#b85450;fillColor=#f8cecc;fontSize=20;fontFamily=Architects Daughter;" parent="8Rd9n1IpjqdqJiG8g8nQ-119" vertex="1">
          <mxGeometry x="-3295" y="1630" width="40" height="40" as="geometry" />
        </mxCell>
        <mxCell id="8Rd9n1IpjqdqJiG8g8nQ-302" value="8" style="text;html=1;align=center;verticalAlign=middle;resizable=0;points=[];autosize=1;strokeColor=#b85450;fillColor=#f8cecc;fontSize=20;fontFamily=Architects Daughter;" parent="8Rd9n1IpjqdqJiG8g8nQ-119" vertex="1">
          <mxGeometry x="-3130" y="1400" width="40" height="40" as="geometry" />
        </mxCell>
        <mxCell id="8Rd9n1IpjqdqJiG8g8nQ-305" value="" style="edgeStyle=orthogonalEdgeStyle;rounded=0;sketch=1;hachureGap=4;jiggle=2;curveFitting=1;orthogonalLoop=1;jettySize=auto;html=1;fontFamily=Architects Daughter;fontSource=https%3A%2F%2Ffonts.googleapis.com%2Fcss%3Ffamily%3DArchitects%2BDaughter;fontSize=16;" parent="8Rd9n1IpjqdqJiG8g8nQ-119" source="8Rd9n1IpjqdqJiG8g8nQ-307" target="8Rd9n1IpjqdqJiG8g8nQ-304" edge="1">
          <mxGeometry relative="1" as="geometry" />
        </mxCell>
        <mxCell id="8Rd9n1IpjqdqJiG8g8nQ-303" value="" style="rounded=0;whiteSpace=wrap;html=1;sketch=1;hachureGap=4;jiggle=2;curveFitting=1;fontFamily=Architects Daughter;fontSource=https%3A%2F%2Ffonts.googleapis.com%2Fcss%3Ffamily%3DArchitects%2BDaughter;fontSize=20;" parent="8Rd9n1IpjqdqJiG8g8nQ-119" vertex="1">
          <mxGeometry x="-3320" y="1960" width="120" height="60" as="geometry" />
        </mxCell>
        <mxCell id="8Rd9n1IpjqdqJiG8g8nQ-304" value="" style="rounded=0;whiteSpace=wrap;html=1;sketch=1;hachureGap=4;jiggle=2;curveFitting=1;fontFamily=Architects Daughter;fontSource=https%3A%2F%2Ffonts.googleapis.com%2Fcss%3Ffamily%3DArchitects%2BDaughter;fontSize=20;" parent="8Rd9n1IpjqdqJiG8g8nQ-119" vertex="1">
          <mxGeometry x="-2820" y="1960" width="120" height="60" as="geometry" />
        </mxCell>
        <mxCell id="8Rd9n1IpjqdqJiG8g8nQ-306" value="" style="edgeStyle=orthogonalEdgeStyle;rounded=0;sketch=1;hachureGap=4;jiggle=2;curveFitting=1;orthogonalLoop=1;jettySize=auto;html=1;fontFamily=Architects Daughter;fontSource=https%3A%2F%2Ffonts.googleapis.com%2Fcss%3Ffamily%3DArchitects%2BDaughter;fontSize=16;" parent="8Rd9n1IpjqdqJiG8g8nQ-119" source="8Rd9n1IpjqdqJiG8g8nQ-303" target="8Rd9n1IpjqdqJiG8g8nQ-307" edge="1">
          <mxGeometry relative="1" as="geometry">
            <mxPoint x="-3200" y="1990" as="sourcePoint" />
            <mxPoint x="-2820" y="1990" as="targetPoint" />
          </mxGeometry>
        </mxCell>
        <mxCell id="8Rd9n1IpjqdqJiG8g8nQ-310" value="" style="edgeStyle=orthogonalEdgeStyle;rounded=0;sketch=1;hachureGap=4;jiggle=2;curveFitting=1;orthogonalLoop=1;jettySize=auto;html=1;fontFamily=Architects Daughter;fontSource=https%3A%2F%2Ffonts.googleapis.com%2Fcss%3Ffamily%3DArchitects%2BDaughter;fontSize=16;" parent="8Rd9n1IpjqdqJiG8g8nQ-119" source="8Rd9n1IpjqdqJiG8g8nQ-307" target="8Rd9n1IpjqdqJiG8g8nQ-309" edge="1">
          <mxGeometry relative="1" as="geometry" />
        </mxCell>
        <mxCell id="8Rd9n1IpjqdqJiG8g8nQ-307" value="" style="ellipse;whiteSpace=wrap;html=1;aspect=fixed;sketch=1;hachureGap=4;jiggle=2;curveFitting=1;fontFamily=Architects Daughter;fontSource=https%3A%2F%2Ffonts.googleapis.com%2Fcss%3Ffamily%3DArchitects%2BDaughter;fontSize=20;" parent="8Rd9n1IpjqdqJiG8g8nQ-119" vertex="1">
          <mxGeometry x="-3040" y="1975" width="30" height="30" as="geometry" />
        </mxCell>
        <mxCell id="8Rd9n1IpjqdqJiG8g8nQ-312" value="" style="edgeStyle=orthogonalEdgeStyle;rounded=0;sketch=1;hachureGap=4;jiggle=2;curveFitting=1;orthogonalLoop=1;jettySize=auto;html=1;fontFamily=Architects Daughter;fontSource=https%3A%2F%2Ffonts.googleapis.com%2Fcss%3Ffamily%3DArchitects%2BDaughter;fontSize=16;" parent="8Rd9n1IpjqdqJiG8g8nQ-119" source="8Rd9n1IpjqdqJiG8g8nQ-309" target="8Rd9n1IpjqdqJiG8g8nQ-311" edge="1">
          <mxGeometry relative="1" as="geometry" />
        </mxCell>
        <mxCell id="8Rd9n1IpjqdqJiG8g8nQ-314" value="" style="edgeStyle=orthogonalEdgeStyle;rounded=0;sketch=1;hachureGap=4;jiggle=2;curveFitting=1;orthogonalLoop=1;jettySize=auto;html=1;fontFamily=Architects Daughter;fontSource=https%3A%2F%2Ffonts.googleapis.com%2Fcss%3Ffamily%3DArchitects%2BDaughter;fontSize=16;" parent="8Rd9n1IpjqdqJiG8g8nQ-119" source="8Rd9n1IpjqdqJiG8g8nQ-309" target="8Rd9n1IpjqdqJiG8g8nQ-313" edge="1">
          <mxGeometry relative="1" as="geometry" />
        </mxCell>
        <mxCell id="8Rd9n1IpjqdqJiG8g8nQ-309" value="" style="ellipse;whiteSpace=wrap;html=1;aspect=fixed;sketch=1;hachureGap=4;jiggle=2;curveFitting=1;fontFamily=Architects Daughter;fontSource=https%3A%2F%2Ffonts.googleapis.com%2Fcss%3Ffamily%3DArchitects%2BDaughter;fontSize=20;" parent="8Rd9n1IpjqdqJiG8g8nQ-119" vertex="1">
          <mxGeometry x="-3040" y="2085" width="30" height="30" as="geometry" />
        </mxCell>
        <mxCell id="8Rd9n1IpjqdqJiG8g8nQ-311" value="" style="whiteSpace=wrap;html=1;fontSize=20;fontFamily=Architects Daughter;sketch=1;hachureGap=4;jiggle=2;curveFitting=1;fontSource=https%3A%2F%2Ffonts.googleapis.com%2Fcss%3Ffamily%3DArchitects%2BDaughter;" parent="8Rd9n1IpjqdqJiG8g8nQ-119" vertex="1">
          <mxGeometry x="-2458" y="2070" width="120" height="60" as="geometry" />
        </mxCell>
        <mxCell id="8Rd9n1IpjqdqJiG8g8nQ-316" value="" style="edgeStyle=orthogonalEdgeStyle;rounded=0;sketch=1;hachureGap=4;jiggle=2;curveFitting=1;orthogonalLoop=1;jettySize=auto;html=1;fontFamily=Architects Daughter;fontSource=https%3A%2F%2Ffonts.googleapis.com%2Fcss%3Ffamily%3DArchitects%2BDaughter;fontSize=16;" parent="8Rd9n1IpjqdqJiG8g8nQ-119" source="8Rd9n1IpjqdqJiG8g8nQ-313" target="8Rd9n1IpjqdqJiG8g8nQ-315" edge="1">
          <mxGeometry relative="1" as="geometry" />
        </mxCell>
        <mxCell id="2FHCuifBLrWcCxierwZi-5" style="edgeStyle=orthogonalEdgeStyle;rounded=0;sketch=1;hachureGap=4;jiggle=2;curveFitting=1;orthogonalLoop=1;jettySize=auto;html=1;exitX=0.5;exitY=1;exitDx=0;exitDy=0;fontFamily=Architects Daughter;fontSource=https%3A%2F%2Ffonts.googleapis.com%2Fcss%3Ffamily%3DArchitects%2BDaughter;fontSize=16;" edge="1" parent="8Rd9n1IpjqdqJiG8g8nQ-119" source="8Rd9n1IpjqdqJiG8g8nQ-313" target="2FHCuifBLrWcCxierwZi-2">
          <mxGeometry relative="1" as="geometry" />
        </mxCell>
        <mxCell id="8Rd9n1IpjqdqJiG8g8nQ-313" value="" style="ellipse;whiteSpace=wrap;html=1;aspect=fixed;sketch=1;hachureGap=4;jiggle=2;curveFitting=1;fontFamily=Architects Daughter;fontSource=https%3A%2F%2Ffonts.googleapis.com%2Fcss%3Ffamily%3DArchitects%2BDaughter;fontSize=20;" parent="8Rd9n1IpjqdqJiG8g8nQ-119" vertex="1">
          <mxGeometry x="-3040" y="2195" width="30" height="30" as="geometry" />
        </mxCell>
        <mxCell id="8Rd9n1IpjqdqJiG8g8nQ-315" value="" style="whiteSpace=wrap;html=1;fontSize=20;fontFamily=Architects Daughter;sketch=1;hachureGap=4;jiggle=2;curveFitting=1;fontSource=https%3A%2F%2Ffonts.googleapis.com%2Fcss%3Ffamily%3DArchitects%2BDaughter;" parent="8Rd9n1IpjqdqJiG8g8nQ-119" vertex="1">
          <mxGeometry x="-2820" y="2180" width="120" height="60" as="geometry" />
        </mxCell>
        <mxCell id="8Rd9n1IpjqdqJiG8g8nQ-317" value="" style="triangle;whiteSpace=wrap;html=1;sketch=1;hachureGap=4;jiggle=2;curveFitting=1;fontFamily=Architects Daughter;fontSource=https%3A%2F%2Ffonts.googleapis.com%2Fcss%3Ffamily%3DArchitects%2BDaughter;fontSize=20;rotation=-90;aspect=fixed;" parent="8Rd9n1IpjqdqJiG8g8nQ-119" vertex="1">
          <mxGeometry x="-3135" y="1963.33" width="20" height="26.67" as="geometry" />
        </mxCell>
        <mxCell id="8Rd9n1IpjqdqJiG8g8nQ-318" value="" style="triangle;whiteSpace=wrap;html=1;sketch=1;hachureGap=4;jiggle=2;curveFitting=1;fontFamily=Architects Daughter;fontSource=https%3A%2F%2Ffonts.googleapis.com%2Fcss%3Ffamily%3DArchitects%2BDaughter;fontSize=20;rotation=-90;aspect=fixed;" parent="8Rd9n1IpjqdqJiG8g8nQ-119" vertex="1">
          <mxGeometry x="-2920" y="1963.33" width="20" height="26.67" as="geometry" />
        </mxCell>
        <mxCell id="8Rd9n1IpjqdqJiG8g8nQ-319" value="" style="triangle;whiteSpace=wrap;html=1;sketch=1;hachureGap=4;jiggle=2;curveFitting=1;fontFamily=Architects Daughter;fontSource=https%3A%2F%2Ffonts.googleapis.com%2Fcss%3Ffamily%3DArchitects%2BDaughter;fontSize=20;rotation=-90;aspect=fixed;" parent="8Rd9n1IpjqdqJiG8g8nQ-119" vertex="1">
          <mxGeometry x="-3020" y="2030" width="20" height="26.67" as="geometry" />
        </mxCell>
        <mxCell id="8Rd9n1IpjqdqJiG8g8nQ-320" value="" style="triangle;whiteSpace=wrap;html=1;sketch=1;hachureGap=4;jiggle=2;curveFitting=1;fontFamily=Architects Daughter;fontSource=https%3A%2F%2Ffonts.googleapis.com%2Fcss%3Ffamily%3DArchitects%2BDaughter;fontSize=20;rotation=-90;aspect=fixed;" parent="8Rd9n1IpjqdqJiG8g8nQ-119" vertex="1">
          <mxGeometry x="-2930" y="2180" width="20" height="26.67" as="geometry" />
        </mxCell>
        <mxCell id="8Rd9n1IpjqdqJiG8g8nQ-321" value="" style="triangle;whiteSpace=wrap;html=1;sketch=1;hachureGap=4;jiggle=2;curveFitting=1;fontFamily=Architects Daughter;fontSource=https%3A%2F%2Ffonts.googleapis.com%2Fcss%3Ffamily%3DArchitects%2BDaughter;fontSize=20;rotation=-90;aspect=fixed;" parent="8Rd9n1IpjqdqJiG8g8nQ-119" vertex="1">
          <mxGeometry x="-2730" y="2068" width="20" height="26.67" as="geometry" />
        </mxCell>
        <mxCell id="2FHCuifBLrWcCxierwZi-1" value="" style="edgeStyle=orthogonalEdgeStyle;rounded=0;sketch=1;hachureGap=4;jiggle=2;curveFitting=1;orthogonalLoop=1;jettySize=auto;html=1;fontFamily=Architects Daughter;fontSource=https%3A%2F%2Ffonts.googleapis.com%2Fcss%3Ffamily%3DArchitects%2BDaughter;fontSize=16;" edge="1" source="2FHCuifBLrWcCxierwZi-2" target="2FHCuifBLrWcCxierwZi-3" parent="8Rd9n1IpjqdqJiG8g8nQ-119">
          <mxGeometry relative="1" as="geometry" />
        </mxCell>
        <mxCell id="2FHCuifBLrWcCxierwZi-2" value="" style="ellipse;whiteSpace=wrap;html=1;aspect=fixed;sketch=1;hachureGap=4;jiggle=2;curveFitting=1;fontFamily=Architects Daughter;fontSource=https%3A%2F%2Ffonts.googleapis.com%2Fcss%3Ffamily%3DArchitects%2BDaughter;fontSize=20;" vertex="1" parent="8Rd9n1IpjqdqJiG8g8nQ-119">
          <mxGeometry x="-3040" y="2315" width="30" height="30" as="geometry" />
        </mxCell>
        <mxCell id="2FHCuifBLrWcCxierwZi-3" value="" style="whiteSpace=wrap;html=1;fontSize=20;fontFamily=Architects Daughter;sketch=1;hachureGap=4;jiggle=2;curveFitting=1;fontSource=https%3A%2F%2Ffonts.googleapis.com%2Fcss%3Ffamily%3DArchitects%2BDaughter;" vertex="1" parent="8Rd9n1IpjqdqJiG8g8nQ-119">
          <mxGeometry x="-2458" y="2300" width="120" height="60" as="geometry" />
        </mxCell>
        <mxCell id="2FHCuifBLrWcCxierwZi-4" value="" style="triangle;whiteSpace=wrap;html=1;sketch=1;hachureGap=4;jiggle=2;curveFitting=1;fontFamily=Architects Daughter;fontSource=https%3A%2F%2Ffonts.googleapis.com%2Fcss%3Ffamily%3DArchitects%2BDaughter;fontSize=20;rotation=-90;aspect=fixed;" vertex="1" parent="8Rd9n1IpjqdqJiG8g8nQ-119">
          <mxGeometry x="-2930" y="2300" width="20" height="26.67" as="geometry" />
        </mxCell>
        <mxCell id="2FHCuifBLrWcCxierwZi-6" value="" style="triangle;whiteSpace=wrap;html=1;sketch=1;hachureGap=4;jiggle=2;curveFitting=1;fontFamily=Architects Daughter;fontSource=https%3A%2F%2Ffonts.googleapis.com%2Fcss%3Ffamily%3DArchitects%2BDaughter;fontSize=20;rotation=-90;aspect=fixed;" vertex="1" parent="8Rd9n1IpjqdqJiG8g8nQ-119">
          <mxGeometry x="-3010" y="2140" width="20" height="26.67" as="geometry" />
        </mxCell>
      </root>
    </mxGraphModel>
  </diagram>
</mxfile>
